<?xml version="1.0" standalone="no"?>
<!DOCTYPE svg PUBLIC "-//W3C//DTD SVG 1.1//EN" "http://www.w3.org/Graphics/SVG/1.1/DTD/svg11.dtd" >
<svg xmlns="http://www.w3.org/2000/svg" xmlns:xlink="http://www.w3.org/1999/xlink" version="1.1">
<metadata>
Created by FontForge 20200427 at Mon Jun 16 22:45:11 2014
 By www
Copyright (c) 2014 by Ryoichi Tsunekawa. All rights reserved.
</metadata>
<defs>
<font id="ComoW01-Medium" horiz-adv-x="644" >
  <font-face 
    font-family="ComoW01-Medium"
    font-weight="500"
    font-stretch="normal"
    units-per-em="1000"
    panose-1="4 2 5 5 2 15 2 2 12 2"
    ascent="800"
    descent="-200"
    x-height="476"
    cap-height="676"
    bbox="-59 -198 1210 922"
    underline-thickness="50"
    underline-position="-175"
    unicode-range="U+0020-2122"
  />
<missing-glyph horiz-adv-x="600" 
d="M49 0v670h502v-670h-502zM124 629l176 -255l176 255h-352zM94 594v-518l179 259zM506 76v518l-179 -259zM300 296l-176 -255h352z" />
    <glyph glyph-name=".notdef" horiz-adv-x="600" 
d="M49 0v670h502v-670h-502zM124 629l176 -255l176 255h-352zM94 594v-518l179 259zM506 76v518l-179 -259zM300 296l-176 -255h352z" />
    <glyph glyph-name=".null" horiz-adv-x="0" 
 />
    <glyph glyph-name="nonmarkingreturn" horiz-adv-x="333" 
 />
    <glyph glyph-name="space" unicode=" " horiz-adv-x="235" 
 />
    <glyph glyph-name="exclam" unicode="!" horiz-adv-x="228" 
d="M77 635q0 41 37 41q38 0 38 -41v-2l-5 -420q0 -17 -9 -26t-24 -9q-32 0 -32 35l-5 420v2zM114 82q20 0 32 -12t12 -32t-12 -32t-32 -12t-32 12t-12 32t12 32t32 12z" />
    <glyph glyph-name="quotedbl" unicode="&#x22;" horiz-adv-x="379" 
d="M129 406q0 -12 -8 -20t-20 -8t-20 8t-8 20l-7 232v4q0 15 10 24.5t25 9.5t25 -9.5t10 -24.5v-4zM306 406q0 -12 -8 -20t-20 -8t-20 8t-8 20l-7 232v4q0 15 10 24.5t25 9.5t25 -9.5t10 -24.5v-4z" />
    <glyph glyph-name="numbersign" unicode="#" 
d="M405 234l25 182h-192l-26 -182h193zM434 21q-3 -27 -29 -27q-17 0 -24 10.5t-5 25.5l21 150h-192l-23 -159q-3 -27 -29 -27q-17 0 -24 10.5t-5 25.5l21 150h-93q-13 0 -21 7t-8 20t8 20t21 7h101l26 182h-94q-29 0 -29 27q0 12 7.5 19.5t21.5 7.5h101l23 159q3 27 29 27
q17 0 24 -10.5t5 -25.5l-21 -150h192l23 159q3 27 29 27q17 0 24 -10.5t5 -25.5l-21 -150h92q14 0 22 -7.5t8 -19.5q0 -14 -8 -20.5t-22 -6.5h-100l-26 -182h93q14 0 22 -7t8 -20t-8 -20t-22 -7h-101z" />
    <glyph glyph-name="dollar" unicode="$" 
d="M579 193q0 -81 -59 -129.5t-165 -55.5v-58q0 -17 -9 -26.5t-24 -9.5q-32 0 -32 36v58q-78 5 -134.5 29t-88.5 67q-8 10 -8 24t8.5 23t23.5 9q16 0 24 -10q27 -33 70 -52.5t105 -24.5v225q-117 5 -167 43.5t-50 115.5q0 80 58.5 129t158.5 56v47q0 36 32 36q15 0 24 -9.5
t9 -26.5v-47q127 -9 191 -81q9 -11 9 -25t-8.5 -23t-23.5 -9q-14 0 -25 11q-47 53 -143 62v-214q120 -6 172 -47t52 -123zM144 458q0 -43 33.5 -64.5t112.5 -26.5v211q-70 -5 -108 -37t-38 -83zM355 73q74 5 114 36.5t40 82.5q0 48 -35 72t-119 29v-220z" />
    <glyph glyph-name="percent" unicode="%" horiz-adv-x="720" 
d="M326 494q0 -38 -10.5 -68.5t-30 -53t-47.5 -34.5t-62 -12t-62 12t-47.5 34.5t-30 53t-10.5 68.5q0 37 10.5 68t30 53.5t47.5 34.5t62 12t62 -12t47.5 -34.5t30 -53.5t10.5 -68zM170 7q-9 -13 -23 -13q-11 0 -18.5 7t-7.5 18q0 9 7 19l423 605q9 13 23 13q11 0 18.5 -7
t7.5 -18q0 -9 -7 -19zM83 494q0 -56 24 -85t69 -29t69 29t24 85q0 55 -24 84.5t-69 29.5t-69 -29.5t-24 -84.5zM544 324q34 0 62 -12t47.5 -34.5t30 -53.5t10.5 -68q0 -38 -10.5 -68.5t-30 -53t-47.5 -34.5t-62 -12t-62 12t-47.5 34.5t-30 53t-10.5 68.5q0 37 10.5 68
t30 53.5t47.5 34.5t62 12zM544 42q45 0 69 29t24 85q0 55 -24 84.5t-69 29.5t-69 -29.5t-24 -84.5q0 -56 24 -85t69 -29z" />
    <glyph glyph-name="ampersand" unicode="&#x26;" horiz-adv-x="683" 
d="M630 379q16 0 25.5 -8t9.5 -24q0 -14 -9.5 -23t-25.5 -9h-105v-2q36 -19 56 -52t20 -83q0 -95 -72.5 -142.5t-210.5 -47.5q-139 0 -211.5 50.5t-72.5 146.5q0 63 34.5 104t94.5 59v2q-48 20 -75.5 58t-27.5 95q0 88 65.5 133.5t188.5 45.5q86 0 143.5 -21.5t90.5 -59.5
q8 -10 8 -22q0 -15 -8.5 -24t-22.5 -9q-15 0 -27 12q-31 30 -74.5 45t-109.5 15q-89 0 -136 -31t-47 -92q0 -57 42 -86.5t111 -29.5h346zM318 52q104 0 158 35t54 104q0 60 -47.5 92t-130.5 32h-65q-83 0 -132.5 -32t-49.5 -92q0 -69 53.5 -104t159.5 -35z" />
    <glyph glyph-name="quotesingle" unicode="'" horiz-adv-x="202" 
d="M129 406q0 -12 -8 -20t-20 -8t-20 8t-8 20l-7 232v4q0 15 10 24.5t25 9.5t25 -9.5t10 -24.5v-4z" />
    <glyph glyph-name="parenleft" unicode="(" horiz-adv-x="345" 
d="M151 285q0 -204 131 -333q11 -11 11 -24q0 -14 -8 -22t-22 -8t-24 9q-78 67 -118 164.5t-40 213.5t40 213.5t118 164.5q10 9 24 9t22 -8t8 -22q0 -13 -11 -24q-131 -129 -131 -333z" />
    <glyph glyph-name="parenright" unicode=")" horiz-adv-x="345" 
d="M194 285q0 204 -131 333q-11 11 -11 24q0 14 8 22t22 8q13 0 24 -9q78 -67 118 -164.5t40 -213.5t-40 -213.5t-118 -164.5q-11 -9 -24 -9q-14 0 -22 8t-8 22q0 13 11 24q131 129 131 333z" />
    <glyph glyph-name="asterisk" unicode="*" horiz-adv-x="541" 
d="M271 706q27 0 27 -30v-3l-5 -181l168 61q5 2 8.5 3t8.5 1q13 0 20 -8t7 -21q0 -20 -22 -26l-177 -51l113 -146q7 -8 7 -20t-7.5 -19.5t-20.5 -7.5q-15 0 -24 14l-103 153l-103 -153q-9 -14 -24 -14q-13 0 -20.5 7.5t-7.5 19.5t7 20l113 146l-177 51q-22 6 -22 26
q0 13 7 21t20 8q5 0 8.5 -1t8.5 -3l168 -61l-5 181v3q0 30 27 30z" />
    <glyph glyph-name="plus" unicode="+" 
d="M573 324q14 0 23 -8t9 -21q0 -14 -9 -21.5t-23 -7.5h-222v-222q0 -14 -8 -23t-21 -9q-14 0 -21.5 9t-7.5 23v222h-222q-14 0 -23 7.5t-9 21.5q0 13 9 21t23 8h222v222q0 14 7.5 23t21.5 9q13 0 21 -9t8 -23v-222h222z" />
    <glyph glyph-name="comma" unicode="," horiz-adv-x="228" 
d="M57 -125q-9 -16 -25 -16q-11 0 -18.5 7.5t-7.5 18.5q0 5 1.5 9t3.5 9l71 158q10 24 34 24q16 0 25.5 -9.5t9.5 -25.5q0 -10 -7 -23z" />
    <glyph glyph-name="hyphen" unicode="-" horiz-adv-x="402" 
d="M330 300q37 0 37 -34q0 -35 -37 -35h-258q-37 0 -37 35q0 34 37 34h258z" />
    <glyph glyph-name="period" unicode="." horiz-adv-x="228" 
d="M114 -6q-20 0 -32.5 12.5t-12.5 32.5q0 21 12.5 33.5t32.5 12.5t33 -12.5t13 -33.5q0 -20 -13 -32.5t-33 -12.5z" />
    <glyph glyph-name="slash" unicode="/" horiz-adv-x="333" 
d="M82 15q-8 -21 -28 -21q-13 0 -21.5 7.5t-8.5 19.5q0 7 3 15l224 619q7 21 28 21q13 0 21.5 -7.5t8.5 -19.5q0 -8 -3 -15z" />
    <glyph glyph-name="zero" unicode="0" 
d="M44 325q0 78 19 140.5t55 106t87.5 67t116.5 23.5q64 0 115.5 -23.5t87.5 -67t55.5 -106t19.5 -140.5t-19.5 -140.5t-55.5 -106t-87.5 -67t-115.5 -23.5q-65 0 -116.5 23.5t-87.5 67t-55 106t-19 140.5zM115 325q0 -129 54.5 -201t152.5 -72t152.5 72t54.5 201t-54.5 201
t-152.5 72t-152.5 -72t-54.5 -201z" />
    <glyph glyph-name="one" unicode="1" 
d="M409 650q18 0 28 -10.5t10 -27.5v-580q0 -38 -34 -38q-36 0 -36 38v554h-194q-15 0 -24.5 8t-9.5 24q0 14 9.5 23t24.5 9h226z" />
    <glyph glyph-name="two" unicode="2" 
d="M549 64q16 0 25.5 -8t9.5 -24q0 -14 -9.5 -23t-25.5 -9h-431q-17 0 -27.5 10.5t-10.5 27.5v11q0 53 13 95t42 75t76.5 58.5t116.5 46.5q49 15 82 30t53 33t28.5 39t8.5 47q0 58 -43.5 91.5t-119.5 33.5q-60 0 -106 -24.5t-72 -69.5q-11 -19 -33 -19q-14 0 -23.5 9.5
t-9.5 24.5q0 10 5 20q33 59 96 91t144 32q53 0 96 -13.5t73.5 -38t47 -59t16.5 -77.5q0 -39 -10.5 -69.5t-35 -55.5t-64.5 -44.5t-99 -36.5t-99.5 -36.5t-65.5 -44t-37 -55t-13 -68.5h402z" />
    <glyph glyph-name="three" unicode="3" 
d="M468 337q56 -18 85 -57.5t29 -96.5q0 -93 -66 -144t-186 -51q-83 0 -147 29.5t-97 80.5q-7 12 -7 23q0 15 9.5 24.5t24.5 9.5q11 0 16.5 -4.5t9.5 -9.5q32 -45 81 -67t109 -22q88 0 135 35.5t47 101.5q0 57 -41.5 87t-122.5 30h-67q-16 0 -25.5 8.5t-9.5 22.5
q0 17 9.5 25t25.5 8h67q72 0 109.5 26.5t37.5 80.5q0 58 -43 89.5t-123 31.5q-58 0 -102 -20.5t-79 -65.5q-9 -12 -25 -12q-14 0 -24 9t-10 24q0 8 2 13t6 11q35 49 95.5 77t137.5 28q111 0 173.5 -46.5t62.5 -131.5q0 -107 -97 -145v-2z" />
    <glyph glyph-name="four" unicode="4" 
d="M587 216q16 0 25.5 -8t9.5 -24q0 -14 -9.5 -23t-25.5 -9h-74v-120q0 -18 -9.5 -28t-25.5 -10q-35 0 -35 38v120h-358q-17 0 -27.5 10t-10.5 25q0 11 4 19t12 17l371 413q8 9 16.5 14.5t22.5 5.5q18 0 29 -12t11 -33v-395h74zM443 216v335l-300 -335h300z" />
    <glyph glyph-name="five" unicode="5" 
d="M338 420q112 0 175.5 -58t63.5 -160q0 -50 -17.5 -89.5t-50.5 -67.5t-80 -42.5t-106 -14.5q-82 0 -146 29t-96 81q-7 12 -7 23q0 15 9.5 24.5t24.5 9.5q11 0 16.5 -4.5t9.5 -9.5q28 -44 77.5 -66.5t110.5 -22.5q88 0 136 39.5t48 113.5q0 72 -48 111.5t-134 39.5
q-51 0 -97 -15.5t-74 -40.5q-15 -12 -28 -12q-35 0 -35 38v6l19 282q1 17 11 26.5t27 9.5h374q16 0 25.5 -9t9.5 -23q0 -16 -9.5 -24t-25.5 -8h-350l-14 -216q40 26 86 38t95 12z" />
    <glyph glyph-name="six" unicode="6" 
d="M348 423q55 0 99 -15.5t75 -43.5t47.5 -68t16.5 -89q0 -50 -17.5 -90.5t-50 -69t-78 -44t-102.5 -15.5q-133 0 -205 82.5t-72 238.5q0 177 78 265t214 88q125 0 190 -68q10 -10 10 -26q0 -14 -9.5 -23.5t-23.5 -9.5q-16 0 -27 11q-22 24 -57.5 38t-82.5 14
q-104 0 -162.5 -67t-59.5 -210h2q28 43 81.5 72.5t133.5 29.5zM337 52q83 0 130.5 41.5t47.5 113.5q0 71 -47.5 111.5t-130.5 40.5q-48 0 -83.5 -14.5t-58.5 -37t-34.5 -49.5t-11.5 -51q0 -25 11.5 -52.5t34.5 -50t58.5 -37.5t83.5 -15z" />
    <glyph glyph-name="seven" unicode="7" 
d="M601 611q0 -11 -2.5 -18t-8.5 -16l-373 -567q-11 -16 -33 -16q-14 0 -24 10t-10 27q0 11 8 24l356 531h-413q-16 0 -25.5 8t-9.5 24q0 14 9.5 23t25.5 9h460q19 0 29.5 -11t10.5 -28z" />
    <glyph glyph-name="eight" unicode="8" 
d="M462 338q65 -18 99 -58.5t34 -99.5q0 -92 -71 -142t-202 -50t-202 50t-71 142q0 59 34 99.5t99 58.5v2q-53 19 -80.5 56.5t-27.5 91.5q0 84 65 129t183 45t183 -45t65 -129q0 -54 -27.5 -91.5t-80.5 -56.5v-2zM145 482q0 -57 45 -84.5t132 -27.5t132 27.5t45 84.5
t-45.5 86.5t-131.5 29.5t-131.5 -29.5t-45.5 -86.5zM322 52q98 0 150 34t52 99q0 121 -202 121t-202 -121q0 -65 52 -99t150 -34z" />
    <glyph glyph-name="nine" unicode="9" 
d="M306 662q133 0 205 -82.5t72 -238.5q0 -177 -78 -265t-214 -88q-125 0 -190 68q-10 10 -10 26q0 14 9.5 23.5t23.5 9.5q16 0 27 -11q22 -24 57.5 -38t82.5 -14q104 0 162.5 67t59.5 210h-2q-28 -43 -81.5 -72.5t-133.5 -29.5q-55 0 -99 15.5t-75 43.5t-47.5 68t-16.5 89
q0 50 17.5 90.5t50 69t78 44t102.5 15.5zM307 291q48 0 83.5 14.5t58.5 37t34.5 49.5t11.5 51q0 25 -11.5 52.5t-34.5 50t-58.5 37.5t-83.5 15q-83 0 -130.5 -41.5t-47.5 -113.5q0 -71 47.5 -111.5t130.5 -40.5z" />
    <glyph glyph-name="colon" unicode=":" horiz-adv-x="228" 
d="M114 -6q-20 0 -32.5 12.5t-12.5 32.5q0 21 12.5 33.5t32.5 12.5t33 -12.5t13 -33.5q0 -20 -13 -32.5t-33 -12.5zM114 368q-20 0 -32.5 12.5t-12.5 32.5q0 21 12.5 33.5t32.5 12.5t33 -12.5t13 -33.5q0 -20 -13 -32.5t-33 -12.5z" />
    <glyph glyph-name="semicolon" unicode=";" horiz-adv-x="228" 
d="M57 -125q-9 -16 -25 -16q-11 0 -18.5 7.5t-7.5 18.5q0 5 1.5 9t3.5 9l71 158q10 24 34 24q16 0 25.5 -9.5t9.5 -25.5q0 -10 -7 -23zM114 368q-20 0 -32.5 12.5t-12.5 32.5q0 21 12.5 33.5t32.5 12.5t33 -12.5t13 -33.5q0 -20 -13 -32.5t-33 -12.5z" />
    <glyph glyph-name="less" unicode="&#x3c;" 
d="M48 295q0 25 22 34l477 216q10 5 18 5q14 0 21.5 -9t7.5 -23q0 -18 -19 -26l-443 -197l443 -197q19 -8 19 -26q0 -14 -7.5 -23t-21.5 -9q-8 0 -18 5l-477 216q-22 9 -22 34z" />
    <glyph glyph-name="equal" unicode="=" 
d="M80 388q-14 0 -23 7.5t-9 21.5q0 13 9 20.5t23 7.5h484q14 0 23 -7.5t9 -20.5q0 -14 -9 -21.5t-23 -7.5h-484zM564 202q14 0 23 -7.5t9 -21.5t-9 -21t-23 -7h-484q-14 0 -23 7t-9 21t9 21.5t23 7.5h484z" />
    <glyph glyph-name="greater" unicode="&#x3e;" 
d="M596 295q0 -25 -22 -34l-477 -216q-10 -5 -18 -5q-14 0 -21.5 9t-7.5 23q0 18 19 26l443 197l-443 197q-19 8 -19 26q0 14 7.5 23t21.5 9q8 0 18 -5l477 -216q22 -9 22 -34z" />
    <glyph glyph-name="question" unicode="?" horiz-adv-x="494" 
d="M239 682q109 0 171 -50.5t62 -138.5q0 -31 -7.5 -56t-24 -46.5t-43.5 -40t-66 -35.5q-57 -25 -78.5 -48t-22.5 -54q0 -35 -32 -35q-15 0 -24 9t-9 26q0 26 6.5 47.5t21 40t38.5 34.5t59 32q62 28 86.5 55.5t24.5 69.5q0 59 -42 92.5t-117 33.5q-56 0 -101 -22.5
t-73 -64.5q-8 -13 -27 -13q-14 0 -24 10t-10 24q0 11 7 22q36 52 94.5 80t130.5 28zM198 82q20 0 32 -12t12 -32t-12 -32t-32 -12t-32 12t-12 32t12 32t32 12z" />
    <glyph glyph-name="at" unicode="@" horiz-adv-x="748" 
d="M525 208q-2 -7 -2 -11.5v-7.5q0 -41 43 -41q22 0 40.5 13.5t32.5 37t22 55.5t8 69q0 57 -21 106t-57.5 84t-87.5 55t-111 20q-63 0 -117.5 -23t-94 -64.5t-62 -97.5t-22.5 -122q0 -68 22 -123t61.5 -94t94 -60.5t120.5 -21.5q51 0 92 10t70 27q3 2 6 3t8 1q11 0 17.5 -6
t6.5 -17q0 -9 -3 -13.5t-8 -7.5q-35 -20 -81 -30.5t-106 -10.5q-80 0 -144.5 25t-110 70.5t-70.5 109t-25 140.5q0 75 26 139t72.5 110.5t109 73t136.5 26.5q70 0 130 -23t104 -64.5t68.5 -98t24.5 -122.5q0 -48 -11.5 -89.5t-32.5 -71.5t-49 -47t-61 -17q-35 0 -58 18
t-28 50h-2q-49 -68 -136 -68q-63 0 -100 40.5t-37 108.5q0 46 15 85.5t40.5 68.5t60.5 46t76 17t69.5 -16.5t46.5 -44.5h2l6 32q5 23 25 23q14 0 20.5 -8.5t4.5 -20.5zM345 148q31 0 57.5 14t46.5 38t31.5 55t11.5 64q0 45 -25.5 71t-67.5 26q-31 0 -57 -13t-45.5 -35.5
t-30.5 -53t-11 -65.5q0 -47 23.5 -74t66.5 -27z" />
    <glyph glyph-name="A" unicode="A" horiz-adv-x="718" 
d="M359 682q145 0 223 -80t78 -232v-336q0 -40 -37 -40q-17 0 -26.5 10.5t-9.5 29.5v177h-457v-178q0 -18 -9.5 -28.5t-26.5 -10.5t-26.5 10.5t-9.5 28.5v337q0 152 77.5 232t223.5 80zM587 372q0 121 -58.5 182t-170.5 61t-170 -61t-58 -182v-94h457v94z" />
    <glyph glyph-name="B" unicode="B" horiz-adv-x="681" 
d="M534 340q117 -35 117 -160q0 -180 -215 -180h-328q-39 0 -39 40v590q0 40 39 40h309q215 0 215 -177q0 -113 -98 -151v-2zM415 371q144 0 144 116t-144 116h-273v-232h273zM432 67q144 0 144 119q0 118 -144 118h-290v-237h290z" />
    <glyph glyph-name="C" unicode="C" horiz-adv-x="707" 
d="M677 145q0 -13 -6 -22q-42 -61 -114.5 -98t-168.5 -37q-77 0 -140.5 25t-109 71t-70.5 110t-25 141t25 141t70.5 109.5t109 71t140.5 25.5q88 0 156.5 -31.5t114.5 -88.5q10 -12 10 -27t-9.5 -25t-25.5 -10q-19 0 -31 16q-35 47 -90 73t-125 26q-60 0 -110 -20.5
t-86 -57.5t-55.5 -88.5t-19.5 -113.5t19.5 -113.5t55.5 -88.5t86 -57.5t110 -20.5q73 0 129 28t94 81q11 16 31 16q15 0 25 -10t10 -25z" />
    <glyph glyph-name="D" unicode="D" horiz-adv-x="726" 
d="M326 670q84 0 150.5 -23t112.5 -66t70.5 -105t24.5 -141t-24.5 -141t-70.5 -105t-112.5 -66t-150.5 -23h-218q-39 0 -39 40v590q0 40 39 40h218zM331 67q65 0 117 18t88 52.5t55 84.5t19 113t-19 112.5t-55 84t-88 53t-117 18.5h-189v-536h189z" />
    <glyph glyph-name="E" unicode="E" horiz-adv-x="651" 
d="M583 67q17 0 26.5 -9t9.5 -25q0 -15 -9.5 -24t-26.5 -9h-475q-39 0 -39 40v590q0 40 39 40h475q17 0 26.5 -9t9.5 -24q0 -16 -9.5 -25t-26.5 -9h-441v-232h367q17 0 26.5 -8.5t9.5 -24.5q0 -17 -9.5 -25.5t-26.5 -8.5h-367v-237h441z" />
    <glyph glyph-name="F" unicode="F" horiz-adv-x="624" 
d="M573 670q17 0 26.5 -9t9.5 -24q0 -16 -9.5 -25t-26.5 -9h-431v-246h358q17 0 26.5 -9t9.5 -25q0 -15 -9.5 -24t-26.5 -9h-358v-256q0 -40 -37 -40q-36 0 -36 40v596q0 40 39 40h465z" />
    <glyph glyph-name="G" unicode="G" horiz-adv-x="754" 
d="M718 293q0 -68 -24 -124t-67.5 -96t-104.5 -62.5t-134 -22.5q-77 0 -140.5 25t-109 71t-70.5 110t-25 141t25 141t70.5 109.5t109 71t140.5 25.5q88 0 156.5 -31.5t112.5 -87.5q10 -13 10 -27t-9.5 -24t-25.5 -10q-19 0 -29 14q-35 47 -90 73t-125 26q-60 0 -110 -20.5
t-86 -57.5t-55.5 -88.5t-19.5 -113.5t19.5 -113.5t55.5 -88.5t86 -57.5t110 -20.5q55 0 100.5 15.5t79 44t54 68.5t25.5 89h-176q-37 0 -37 33q0 34 37 34h207q40 0 40 -41v-5z" />
    <glyph glyph-name="H" unicode="H" horiz-adv-x="739" 
d="M633 676q37 0 37 -40v-602q0 -40 -37 -40q-36 0 -36 40v271h-455v-271q0 -40 -37 -40q-36 0 -36 40v602q0 40 36 40q37 0 37 -40v-264h455v264q0 40 36 40z" />
    <glyph glyph-name="I" unicode="I" horiz-adv-x="211" 
d="M105 676q37 0 37 -40v-602q0 -40 -37 -40q-36 0 -36 40v602q0 40 36 40z" />
    <glyph glyph-name="J" unicode="J" horiz-adv-x="602" 
d="M507 676q37 0 37 -40v-379q0 -132 -68.5 -200.5t-200.5 -68.5q-109 0 -176 48.5t-85 139.5q-1 5 -1 7v5q0 14 9.5 24t25.5 10t24 -8t11 -21q14 -66 63 -102t129 -36q96 0 146 51t50 151v379q0 40 36 40z" />
    <glyph glyph-name="K" unicode="K" horiz-adv-x="656" 
d="M620 60q12 -14 12 -29q0 -17 -10 -27t-26 -10q-18 0 -30 15l-294 332l-130 -103v-204q0 -40 -37 -40q-36 0 -36 40v602q0 40 36 40q37 0 37 -40v-308l419 337q14 11 27 11q17 0 26.5 -9.5t9.5 -26.5q0 -19 -16 -32l-280 -223z" />
    <glyph glyph-name="L" unicode="L" horiz-adv-x="608" 
d="M568 67q17 0 26.5 -9t9.5 -25q0 -15 -9.5 -24t-26.5 -9h-460q-39 0 -39 40v596q0 40 36 40q37 0 37 -40v-569h426z" />
    <glyph glyph-name="M" unicode="M" horiz-adv-x="854" 
d="M739 676q23 0 34.5 -14t11.5 -35v-593q0 -40 -36 -40q-37 0 -37 40v507h-2l-245 -388q-7 -11 -15 -17t-22 -6t-23 6t-15 16l-247 392h-2v-511q0 -18 -9.5 -28.5t-26.5 -10.5t-26.5 10.5t-9.5 28.5v593q0 21 11.5 35.5t34.5 14.5q17 0 28 -6.5t20 -20.5l265 -421l266 422
q17 26 45 26z" />
    <glyph glyph-name="N" unicode="N" horiz-adv-x="729" 
d="M624 676q17 0 26.5 -10.5t9.5 -28.5v-599q0 -20 -12 -32t-31 -12q-11 0 -20.5 3.5t-18.5 14.5l-435 543h-2v-522q0 -18 -9.5 -28.5t-26.5 -10.5t-26.5 10.5t-9.5 28.5v598q0 20 11 32.5t31 12.5q11 0 20.5 -3.5t18.5 -14.5l436 -543h2v522q0 18 9.5 28.5t26.5 10.5z" />
    <glyph glyph-name="O" unicode="O" horiz-adv-x="777" 
d="M43 335q0 77 25 141t70.5 109.5t109 71t140.5 25.5t141 -25.5t109.5 -71t70.5 -109.5t25 -141t-25 -141t-70.5 -110t-109.5 -71t-141 -25t-140.5 25t-109 71t-70.5 110t-25 141zM117 335q0 -62 19.5 -113.5t55.5 -88.5t86 -57.5t110 -20.5t110 20.5t86 57.5t56 88.5
t20 113.5t-20 113.5t-56 88.5t-86 57.5t-110 20.5t-110 -20.5t-86 -57.5t-55.5 -88.5t-19.5 -113.5z" />
    <glyph glyph-name="P" unicode="P" horiz-adv-x="659" 
d="M418 670q107 0 162.5 -52t55.5 -152t-55.5 -152.5t-162.5 -52.5h-276v-227q0 -40 -37 -40q-36 0 -36 40v596q0 40 39 40h310zM412 328q74 0 112 34.5t38 103.5q0 68 -38 102.5t-112 34.5h-270v-275h270z" />
    <glyph glyph-name="Q" unicode="Q" horiz-adv-x="777" 
d="M699 -28q9 -12 9 -24q0 -17 -10 -26.5t-27 -9.5q-19 0 -31 15l-75 103q-38 -20 -82 -31t-95 -11q-77 0 -140.5 25t-109 71t-70.5 110t-25 141t25 141t70.5 109.5t109 71t140.5 25.5t141 -25.5t109.5 -71t70.5 -109.5t25 -141q0 -83 -28.5 -150t-80.5 -114zM388 55
q76 0 135 32l-97 133q-7 8 -7 20q0 16 9.5 26t25.5 10q11 0 17.5 -4t11.5 -11l98 -131q38 37 58.5 89t20.5 116q0 62 -20 113.5t-56 88.5t-86 57.5t-110 20.5t-110 -20.5t-86 -57.5t-55.5 -88.5t-19.5 -113.5t19.5 -113.5t55.5 -88.5t86 -57.5t110 -20.5z" />
    <glyph glyph-name="R" unicode="R" horiz-adv-x="677" 
d="M627 59q10 -13 10 -28q0 -17 -10 -27t-27 -10q-11 0 -18.5 4.5t-14.5 12.5l-201 255h-224v-232q0 -40 -37 -40q-36 0 -36 40v596q0 40 39 40h306q106 0 161.5 -50.5t55.5 -147.5q0 -89 -45 -140t-133 -60v-2zM408 333q74 0 111.5 34.5t37.5 100.5t-37.5 100.5
t-111.5 34.5h-266v-270h266z" />
    <glyph glyph-name="S" unicode="S" horiz-adv-x="655" 
d="M120 476q0 -26 10.5 -44t34.5 -30t64 -17.5t100 -6.5q80 -1 135.5 -12t89.5 -33.5t49 -56.5t15 -81q0 -98 -75.5 -152.5t-209.5 -54.5q-103 0 -177.5 28t-111.5 81q-8 11 -8 25q0 15 9.5 25t25.5 10q17 0 26 -12q34 -44 95.5 -67t145.5 -23q97 0 152 37t55 102
q0 29 -11.5 49.5t-37.5 34t-68.5 20t-104.5 7.5q-77 1 -129.5 11t-85.5 31t-47.5 52.5t-14.5 75.5q0 47 20 85t56.5 65t88.5 42t116 15q85 0 150 -23.5t103 -68.5q9 -11 9 -27q0 -15 -9.5 -25t-25.5 -10q-18 0 -28 12q-69 75 -204 75q-46 0 -83 -10t-63.5 -28t-41 -44
t-14.5 -57z" />
    <glyph glyph-name="T" unicode="T" horiz-adv-x="629" 
d="M589 670q17 0 26.5 -9t9.5 -24q0 -16 -9.5 -25t-26.5 -9h-237v-569q0 -40 -37 -40q-36 0 -36 40v569h-239q-17 0 -26.5 9t-9.5 25q0 15 9.5 24t26.5 9h549z" />
    <glyph glyph-name="U" unicode="U" horiz-adv-x="689" 
d="M595 676q17 0 26.5 -10.5t9.5 -28.5v-349q0 -149 -72.5 -224.5t-212.5 -75.5q-141 0 -214.5 75.5t-73.5 224.5v348q0 40 36 40q37 0 37 -40v-348q0 -116 54.5 -174.5t160.5 -58.5q104 0 158.5 58.5t54.5 174.5v349q0 18 9.5 28.5t26.5 10.5z" />
    <glyph glyph-name="V" unicode="V" horiz-adv-x="673" 
d="M624 676q16 0 26 -9.5t10 -26.5q0 -10 -6 -23l-275 -593q-14 -30 -42 -30q-17 0 -26.5 7.5t-16.5 22.5l-276 595q-5 10 -5 20q0 17 10 27t27 10q14 0 22 -6.5t14 -19.5l250 -547h2l252 549q11 24 34 24z" />
    <glyph glyph-name="W" unicode="W" horiz-adv-x="996" 
d="M941 676q17 0 27.5 -9.5t10.5 -26.5q0 -5 -1.5 -10t-3.5 -12l-212 -592q-5 -14 -15 -23t-26 -9q-17 0 -26.5 9t-14.5 23l-182 509h-2l-181 -509q-5 -14 -15.5 -23t-25.5 -9q-17 0 -26.5 9t-14.5 23l-211 591q-2 7 -3.5 12t-1.5 10q0 17 10.5 27t27.5 10q24 0 33 -25
l185 -530h2l186 524q5 14 13.5 22.5t22.5 8.5q15 0 23.5 -8.5t13.5 -22.5l187 -524h2l186 529q9 26 32 26z" />
    <glyph glyph-name="X" unicode="X" horiz-adv-x="667" 
d="M621 60q5 -7 8 -13.5t3 -15.5q0 -17 -10 -27t-27 -10q-18 0 -31 16l-232 283l-230 -280q-14 -19 -31 -19q-16 0 -26 9.5t-10 26.5q0 15 10 28l236 282l-226 270q-5 7 -8 13.5t-3 15.5q0 17 10 27t27 10q18 0 31 -16l222 -272l223 270q7 8 14 13t17 5q16 0 26 -9.5
t10 -26.5q0 -15 -10 -28l-228 -272z" />
    <glyph glyph-name="Y" unicode="Y" horiz-adv-x="641" 
d="M357 34q0 -40 -36 -40q-37 0 -37 40v256l-269 320q-5 7 -8 13.5t-3 15.5q0 17 10 27t27 10t31 -15l249 -302l249 299q7 8 14 13t17 5q16 0 26 -9.5t10 -26.5q0 -15 -10 -28l-270 -323v-255z" />
    <glyph glyph-name="Z" unicode="Z" horiz-adv-x="638" 
d="M569 67q17 0 26.5 -9t9.5 -25q0 -15 -9.5 -24t-26.5 -9h-497q-19 0 -29.5 10t-10.5 25q0 11 3 18t11 15l448 535h-410q-37 0 -37 34q0 15 10 24t27 9h476q19 0 29.5 -10t10.5 -25q0 -9 -3 -17t-11 -18l-448 -533h431z" />
    <glyph glyph-name="bracketleft" unicode="[" horiz-adv-x="345" 
d="M261 -40q32 0 32 -30t-32 -30h-147q-35 0 -35 36v698q0 36 35 36h147q32 0 32 -30q0 -14 -8.5 -22t-23.5 -8h-117v-650h117z" />
    <glyph glyph-name="backslash" unicode="\" horiz-adv-x="333" 
d="M27 634q-3 7 -3 15q0 12 8.5 19.5t21.5 7.5q20 0 28 -21l224 -619q3 -8 3 -15q0 -12 -8.5 -19.5t-21.5 -7.5q-21 0 -28 21z" />
    <glyph glyph-name="bracketright" unicode="]" horiz-adv-x="345" 
d="M84 610q-32 0 -32 30t32 30h147q35 0 35 -36v-698q0 -36 -35 -36h-147q-32 0 -32 30q0 14 8.5 22t23.5 8h117v650h-117z" />
    <glyph glyph-name="asciicircum" unicode="^" 
d="M100 271q-11 -16 -27 -16q-13 0 -21.5 8t-8.5 22q0 9 6 18l241 355q5 8 13 13t19 5t19 -5t13 -13l241 -355q6 -9 6 -18q0 -14 -8.5 -22t-21.5 -8q-16 0 -27 16l-222 332z" />
    <glyph glyph-name="underscore" unicode="_" horiz-adv-x="500" 
d="M500 -102h-500v38h500v-38z" />
    <glyph glyph-name="grave" unicode="`" horiz-adv-x="500" 
d="M126 693q0 12 7.5 20t20.5 8q14 0 23 -9l117 -117q10 -9 10 -22q0 -11 -7 -18.5t-19 -7.5q-11 0 -19 7l-121 113q-12 12 -12 26z" />
    <glyph glyph-name="a" unicode="a" horiz-adv-x="611" 
d="M512 482q34 0 34 -37v-414q0 -37 -34 -37q-35 0 -35 37v47h-2q-29 -43 -77.5 -66.5t-113.5 -23.5q-54 0 -98.5 18t-76 51t-49 79t-17.5 102t17.5 102t49 79t76 51t98.5 18q65 0 113.5 -23.5t77.5 -66.5h2v47q0 37 35 37zM295 50q40 0 73.5 13.5t57.5 38.5t37.5 59.5
t13.5 76.5t-13.5 76.5t-37.5 59t-57.5 38.5t-73.5 14q-41 0 -74.5 -13.5t-57.5 -38.5t-37 -59.5t-13 -76.5t13 -76.5t37 -59.5t57.5 -38.5t74.5 -13.5z" />
    <glyph glyph-name="b" unicode="b" horiz-adv-x="612" 
d="M327 488q54 0 98.5 -18t76.5 -51t49.5 -79t17.5 -102t-17.5 -102t-49.5 -79t-76.5 -51t-98.5 -18q-65 0 -113.5 23.5t-77.5 66.5h-2v-47q0 -37 -35 -37q-34 0 -34 37v638q0 37 34 37q35 0 35 -37v-271h2q29 43 77.5 66.5t113.5 23.5zM316 50q40 0 74 13.5t58 38.5
t37.5 59.5t13.5 76.5t-13.5 76.5t-37.5 59.5t-58 38.5t-74 13.5t-73.5 -14t-57.5 -38.5t-37.5 -59t-13.5 -76.5t13.5 -76.5t37.5 -59.5t57.5 -38.5t73.5 -13.5z" />
    <glyph glyph-name="c" unicode="c" horiz-adv-x="532" 
d="M499 97q0 -10 -6 -19q-33 -44 -84 -67t-114 -23q-56 0 -102.5 18t-79.5 51t-51.5 79t-18.5 102t18.5 102t51.5 79t79.5 51t102.5 18q115 0 188 -76q8 -9 8 -22q0 -15 -9 -24t-23 -9t-27 13q-25 26 -60 41t-77 15q-41 0 -74.5 -13.5t-57.5 -38.5t-37 -59.5t-13 -76.5
t13 -76.5t37 -59.5t57.5 -38.5t74.5 -13.5q94 0 148 69q8 10 24 10q14 0 23 -9t9 -23z" />
    <glyph glyph-name="d" unicode="d" horiz-adv-x="611" 
d="M512 706q34 0 34 -37v-638q0 -37 -34 -37q-35 0 -35 37v47h-2q-29 -43 -77.5 -66.5t-113.5 -23.5q-54 0 -98.5 18t-76 51t-49 79t-17.5 102t17.5 102t49 79t76 51t98.5 18q65 0 113.5 -23.5t77.5 -66.5h2v271q0 37 35 37zM295 50q40 0 73.5 13.5t57.5 38.5t37.5 59.5
t13.5 76.5t-13.5 76.5t-37.5 59t-57.5 38.5t-73.5 14q-41 0 -74.5 -13.5t-57.5 -38.5t-37 -59.5t-13 -76.5t13 -76.5t37 -59.5t57.5 -38.5t74.5 -13.5z" />
    <glyph glyph-name="e" unicode="e" horiz-adv-x="573" 
d="M540 256q0 -42 -44 -42h-382q8 -74 58 -119t129 -45q48 0 86 17.5t61 47.5q10 14 28 14q14 0 23 -9t9 -23q0 -11 -7 -21q-32 -42 -84 -65t-116 -23q-58 0 -105.5 18t-81.5 51t-52.5 79t-18.5 102t18.5 102t51.5 79t79.5 51t102.5 18q53 0 98 -17.5t77.5 -48.5t51 -73.5
t18.5 -92.5zM295 426q-36 0 -66.5 -11t-54 -31t-38.5 -48t-20 -62h359q-11 69 -59 110.5t-121 41.5z" />
    <glyph glyph-name="f" unicode="f" horiz-adv-x="391" 
d="M246 650q-54 0 -83 -31.5t-29 -91.5v-51h208q34 0 34 -31t-34 -31h-208v-383q0 -37 -34 -37q-35 0 -35 37v495q0 88 47 137t131 49q56 0 97 -22.5t62 -63.5q5 -10 5 -18q0 -14 -9 -23t-23 -9q-10 0 -17.5 6t-12.5 14q-29 54 -99 54z" />
    <glyph glyph-name="g" unicode="g" horiz-adv-x="611" 
d="M512 482q34 0 34 -37v-409q0 -54 -17 -97.5t-49 -74t-78 -46.5t-104 -16q-72 0 -129 21t-84 58q-7 10 -7 21q0 14 9 23.5t24 9.5q12 0 21 -9q54 -62 164 -62q85 0 133 45t48 124v51h-2q-60 -87 -193 -87q-53 0 -97 17.5t-75.5 50t-49 77.5t-17.5 101q0 55 17.5 100
t49 77.5t75.5 50t97 17.5q65 0 114.5 -22.5t78.5 -64.5h2v44q0 37 35 37zM294 59q41 0 74.5 13.5t57.5 37.5t37.5 58t13.5 75t-13.5 74.5t-37.5 57.5t-57.5 37.5t-74.5 13.5t-74 -13.5t-57 -37.5t-37 -57.5t-13 -74.5t13 -75t37 -58t57 -37.5t74 -13.5z" />
    <glyph glyph-name="h" unicode="h" horiz-adv-x="577" 
d="M316 488q102 0 154.5 -56.5t52.5 -165.5v-235q0 -37 -34 -37q-35 0 -35 37v229q0 82 -39 124t-114 42q-77 0 -122 -50t-45 -136v-209q0 -37 -34 -37q-35 0 -35 37v638q0 37 35 37q34 0 34 -37v-267h2q27 41 72.5 63.5t107.5 22.5z" />
    <glyph glyph-name="i" unicode="i" horiz-adv-x="199" 
d="M100 583q-20 0 -31.5 12t-11.5 31q0 20 11.5 32t31.5 12q19 0 30.5 -12t11.5 -32q0 -19 -11.5 -31t-30.5 -12zM100 482q34 0 34 -37v-414q0 -37 -34 -37q-35 0 -35 37v414q0 37 35 37z" />
    <glyph glyph-name="j" unicode="j" horiz-adv-x="199" 
d="M100 583q-20 0 -31.5 12t-11.5 31q0 20 11.5 32t31.5 12q19 0 30.5 -12t11.5 -32q0 -19 -11.5 -31t-30.5 -12zM100 482q34 0 34 -37v-497q0 -66 -32.5 -100t-91.5 -34h-18q-34 0 -34 31t34 31h11q62 0 62 74v495q0 37 35 37z" />
    <glyph glyph-name="k" unicode="k" horiz-adv-x="526" 
d="M484 56q12 -14 12 -28q0 -16 -9.5 -25t-24.5 -9q-17 0 -29 15l-197 229l-102 -77v-130q0 -37 -34 -37q-35 0 -35 37v638q0 37 35 37q34 0 34 -37v-431l297 234q13 10 27 10t23.5 -8.5t9.5 -24.5q0 -17 -13 -27l-189 -144z" />
    <glyph glyph-name="l" unicode="l" horiz-adv-x="199" 
d="M100 706q34 0 34 -37v-638q0 -37 -34 -37q-35 0 -35 37v638q0 37 35 37z" />
    <glyph glyph-name="m" unicode="m" horiz-adv-x="854" 
d="M616 488q92 0 138 -54t46 -159v-244q0 -37 -35 -37q-34 0 -34 37v238q0 77 -31.5 117t-94.5 40q-64 0 -101 -47t-37 -128v-220q0 -37 -35 -37q-34 0 -34 37v238q0 77 -32 117t-95 40t-100 -47t-37 -128v-220q0 -37 -34 -37q-35 0 -35 37v414q0 37 35 37q34 0 34 -37v-32
h2q24 36 62 55.5t88 19.5q57 0 97 -23t60 -68h2q24 44 66.5 67.5t104.5 23.5z" />
    <glyph glyph-name="n" unicode="n" horiz-adv-x="577" 
d="M316 488q102 0 154.5 -56.5t52.5 -165.5v-235q0 -37 -34 -37q-35 0 -35 37v229q0 82 -39 124t-114 42q-77 0 -122 -50t-45 -136v-209q0 -37 -34 -37q-35 0 -35 37v414q0 37 35 37q34 0 34 -37v-43h2q27 41 72.5 63.5t107.5 22.5z" />
    <glyph glyph-name="o" unicode="o" horiz-adv-x="591" 
d="M43 238q0 56 18.5 102t51.5 79t79.5 51t102.5 18t102.5 -18t80 -51t52 -79t18.5 -102t-18.5 -102t-52 -79t-80 -51t-102.5 -18t-102.5 18t-79.5 51t-51.5 79t-18.5 102zM113 238q0 -42 13 -76.5t37 -59.5t57.5 -38.5t74.5 -13.5t74.5 13.5t57.5 38.5t37.5 59.5t13.5 76.5
t-13.5 76.5t-37.5 59.5t-57.5 38.5t-74.5 13.5t-74.5 -13.5t-57.5 -38.5t-37 -59.5t-13 -76.5z" />
    <glyph glyph-name="p" unicode="p" horiz-adv-x="612" 
d="M327 488q54 0 98.5 -18t76.5 -51t49.5 -79t17.5 -102t-17.5 -102t-49.5 -79t-76.5 -51t-98.5 -18q-65 0 -113.5 23.5t-77.5 66.5h-2v-233q0 -37 -35 -37q-34 0 -34 37v600q0 37 34 37q35 0 35 -37v-47h2q29 43 77.5 66.5t113.5 23.5zM316 50q40 0 74 13.5t58 38.5
t37.5 59.5t13.5 76.5t-13.5 76.5t-37.5 59.5t-58 38.5t-74 13.5t-73.5 -14t-57.5 -38.5t-37.5 -59t-13.5 -76.5t13.5 -76.5t37.5 -59.5t57.5 -38.5t73.5 -13.5z" />
    <glyph glyph-name="q" unicode="q" horiz-adv-x="611" 
d="M512 482q34 0 34 -37v-600q0 -37 -34 -37q-35 0 -35 37v233h-2q-29 -43 -77.5 -66.5t-113.5 -23.5q-54 0 -98.5 18t-76 51t-49 79t-17.5 102t17.5 102t49 79t76 51t98.5 18q65 0 113.5 -23.5t77.5 -66.5h2v47q0 37 35 37zM295 50q40 0 73.5 13.5t57.5 38.5t37.5 59.5
t13.5 76.5t-13.5 76.5t-37.5 59t-57.5 38.5t-73.5 14q-41 0 -74.5 -13.5t-57.5 -38.5t-37 -59.5t-13 -76.5t13 -76.5t37 -59.5t57.5 -38.5t74.5 -13.5z" />
    <glyph glyph-name="r" unicode="r" horiz-adv-x="356" 
d="M310 485q15 0 24.5 -8t9.5 -25t-9.5 -25.5t-24.5 -8.5q-85 0 -130.5 -51.5t-45.5 -157.5v-178q0 -37 -34 -37q-35 0 -35 37v414q0 37 35 37q34 0 34 -37v-54h2q25 46 68.5 70t105.5 24z" />
    <glyph glyph-name="s" unicode="s" horiz-adv-x="498" 
d="M111 339q0 -33 30.5 -47.5t111.5 -15.5q60 0 101 -8.5t66.5 -26t36.5 -43.5t11 -62q0 -69 -55.5 -108.5t-154.5 -39.5q-145 0 -214 68q-10 10 -10 25t9 24t22 9q10 0 16.5 -4t12.5 -9q27 -24 68 -37t92 -13q68 0 106.5 23t38.5 63q0 18 -7.5 31.5t-25 22t-46 12.5
t-71.5 5q-58 1 -98 9t-64.5 24t-35 40t-10.5 58q0 68 56.5 108.5t151.5 40.5q120 0 185 -56q12 -11 12 -28q0 -14 -8.5 -23.5t-22.5 -9.5t-26 10q-26 21 -62 33t-74 12q-66 0 -104 -23t-38 -64z" />
    <glyph glyph-name="t" unicode="t" horiz-adv-x="405" 
d="M390 92q0 -10 -4 -18q-21 -42 -61 -64t-97 -22q-81 0 -128 49t-47 137v427q0 37 34 37q35 0 35 -37v-125h208q34 0 34 -31t-34 -31h-208v-241q0 -60 29 -91.5t81 -31.5q36 0 60.5 15t38.5 43q8 17 28 17q14 0 22.5 -9.5t8.5 -23.5z" />
    <glyph glyph-name="u" unicode="u" horiz-adv-x="574" 
d="M475 482q34 0 34 -37v-416q0 -16 -9.5 -25.5t-25.5 -9.5t-25 9.5t-9 25.5v45h-2q-27 -41 -72 -63.5t-106 -22.5q-100 0 -153 57t-53 166v234q0 37 34 37q35 0 35 -37v-228q0 -83 38.5 -125t113.5 -42t120 49.5t45 136.5v209q0 37 35 37z" />
    <glyph glyph-name="v" unicode="v" horiz-adv-x="504" 
d="M461 482q16 0 24.5 -9.5t8.5 -23.5q0 -10 -5 -20l-198 -408q-6 -12 -15 -19.5t-24 -7.5q-14 0 -23.5 7.5t-15.5 19.5l-197 403q-6 13 -6 24q0 16 9.5 25t24.5 9q22 0 32 -23l176 -370h2l176 370q11 23 31 23z" />
    <glyph glyph-name="w" unicode="w" horiz-adv-x="758" 
d="M713 482q14 0 24 -9t10 -24q0 -10 -4 -21l-159 -407q-5 -12 -14 -19.5t-22 -7.5q-14 0 -22.5 7.5t-13.5 19.5l-132 338h-2l-132 -338q-5 -12 -14 -19.5t-22 -7.5q-14 0 -22.5 7.5t-13.5 19.5l-158 404q-5 13 -5 23q0 16 10 25t25 9q23 0 32 -23l131 -349h2l135 345
q5 12 12.5 19.5t21.5 7.5t21.5 -7.5t12.5 -19.5l135 -345h2l131 349q9 23 31 23z" />
    <glyph glyph-name="x" unicode="x" horiz-adv-x="522" 
d="M480 56q11 -13 11 -28t-9.5 -24.5t-24.5 -9.5q-17 0 -29 14l-168 190l-168 -191q-12 -13 -28 -13q-15 0 -24 9t-9 25q0 14 10 24l172 188l-166 180q-11 13 -11 28t9.5 24.5t24.5 9.5q17 0 29 -14l163 -184l163 185q12 13 28 13q15 0 24 -9t9 -25q0 -14 -10 -24l-167 -182
z" />
    <glyph glyph-name="y" unicode="y" horiz-adv-x="574" 
d="M475 482q34 0 34 -37v-408q0 -110 -63 -172.5t-174 -62.5q-66 0 -119 19.5t-82 59.5q-7 10 -7 21q0 14 9 23.5t24 9.5q12 0 21 -9q29 -32 66.5 -47t86.5 -15q79 0 124 45.5t45 125.5v48h-2q-27 -41 -72 -63.5t-106 -22.5q-100 0 -153 56.5t-53 165.5v226q0 37 34 37
q35 0 35 -37v-220q0 -81 38.5 -123.5t113.5 -42.5q37 0 67.5 13t52.5 37t33.5 58.5t11.5 77.5v200q0 37 35 37z" />
    <glyph glyph-name="z" unicode="z" horiz-adv-x="510" 
d="M445 62q34 0 34 -31t-34 -31h-376q-18 0 -28 9.5t-10 24.5q0 10 4 18t12 16l323 346h-290q-34 0 -34 31t34 31h356q18 0 28 -8.5t10 -22.5q0 -12 -4.5 -19.5t-12.5 -15.5l-322 -348h310z" />
    <glyph glyph-name="braceleft" unicode="{" horiz-adv-x="353" 
d="M271 -44q31 0 31 -29q0 -27 -31 -27h-31q-64 0 -94.5 30t-30.5 96v156q0 41 -14.5 58t-42.5 17h-7q-30 0 -30 28t30 28h7q28 0 42.5 16.5t14.5 58.5v156q0 65 30.5 95.5t94.5 30.5h31q31 0 31 -28t-31 -28h-20q-38 0 -54 -17t-16 -55v-138q0 -96 -64 -118v-2
q64 -22 64 -118v-138q0 -39 16 -55.5t54 -16.5h20z" />
    <glyph glyph-name="bar" unicode="|" horiz-adv-x="322" 
d="M161 706q28 0 28 -31v-837q0 -14 -7.5 -22t-20.5 -8q-14 0 -21 8t-7 22v837q0 31 28 31z" />
    <glyph glyph-name="braceright" unicode="}" horiz-adv-x="353" 
d="M82 614q-31 0 -31 29q0 27 31 27h31q64 0 94.5 -30t30.5 -96v-156q0 -41 14.5 -58t42.5 -17h7q30 0 30 -28t-30 -28h-7q-28 0 -42.5 -16.5t-14.5 -58.5v-156q0 -65 -30.5 -95.5t-94.5 -30.5h-31q-31 0 -31 28t31 28h20q38 0 54 17t16 55v138q0 96 64 118v2
q-64 22 -64 118v138q0 39 -16 55.5t-54 16.5h-20z" />
    <glyph glyph-name="asciitilde" unicode="~" 
d="M444 284q60 0 106 64q10 14 25 14q13 0 21.5 -8t8.5 -22q0 -12 -6 -19q-69 -87 -155 -87q-32 0 -62.5 11t-73.5 38q-38 24 -61.5 33t-46.5 9q-60 0 -106 -64q-5 -6 -11 -10t-14 -4q-13 0 -21.5 8t-8.5 22q0 11 6 19q69 87 155 87q32 0 62.5 -11t73.5 -38q38 -24 61.5 -33
t46.5 -9z" />
    <glyph glyph-name="uni00A0" unicode="&#xa0;" horiz-adv-x="235" 
 />
    <glyph glyph-name="exclamdown" unicode="&#xa1;" horiz-adv-x="228" 
d="M151 35q0 -41 -37 -41q-38 0 -38 41v2l5 420q0 17 9 26t24 9q32 0 32 -35l5 -420v-2zM114 588q-20 0 -32 12t-12 32t12 32t32 12t32 -12t12 -32t-12 -32t-32 -12z" />
    <glyph glyph-name="cent" unicode="&#xa2;" 
d="M572 118q0 -13 -9 -23q-63 -76 -173 -87v-58q0 -36 -32 -36t-32 36v59q-53 5 -95.5 25t-72 53t-45.5 77.5t-16 98.5t16 98.5t45.5 77.5t72 53t95.5 25v52q0 36 32 36t32 -36v-51q51 -5 91.5 -24.5t72.5 -52.5q9 -9 9 -23t-9 -23.5t-23 -9.5q-15 0 -24 9q-24 24 -52.5 39
t-64.5 20v-380q39 5 69 21.5t55 45.5q9 11 24 11t24.5 -9t9.5 -24zM168 263q0 -81 41.5 -130.5t116.5 -59.5v380q-75 -10 -116.5 -59.5t-41.5 -130.5z" />
    <glyph glyph-name="sterling" unicode="&#xa3;" 
d="M548 64q16 0 25.5 -8t9.5 -24q0 -14 -9.5 -23t-25.5 -9h-442q-17 0 -27.5 9t-10.5 25q0 12 4.5 19.5t11.5 13.5q32 27 51.5 65.5t19.5 99.5q0 14 -1 28.5t-3 28.5h-57q-15 0 -25 9t-10 23q0 16 10 24t25 8h48q-3 22 -5.5 44t-2.5 45q0 106 58 163t164 57q133 0 197 -78
q7 -8 7 -21q0 -14 -8.5 -23t-22.5 -9q-15 0 -25 10q-25 28 -60 43t-87 15q-75 0 -114 -40t-39 -117q0 -22 2 -44t5 -45h292q15 0 24.5 -8t9.5 -24q0 -14 -9.5 -23t-24.5 -9h-285q1 -13 1.5 -25.5t0.5 -25.5q0 -63 -17.5 -104t-48.5 -68v-2h394z" />
    <glyph glyph-name="currency" unicode="&#xa4;" 
d="M322 109q-77 0 -133 42l-72 -73q-10 -10 -22 -10q-13 0 -21 8t-8 21t9 22l73 73q-20 27 -30.5 61t-10.5 72t10.5 72t30.5 61l-73 73q-9 9 -9 22t8 21t21 8q12 0 22 -10l72 -73q56 42 133 42t133 -42l72 73q10 10 22 10q13 0 21 -8t8 -21t-9 -22l-73 -73q20 -27 30.5 -61
t10.5 -72t-10.5 -72t-30.5 -61l73 -73q9 -9 9 -22t-8 -21t-21 -8q-12 0 -22 10l-72 73q-56 -42 -133 -42zM322 485q-35 0 -64 -12t-50 -33t-32.5 -50.5t-11.5 -64.5t11.5 -64.5t32.5 -50.5t50 -33t64 -12q34 0 63 12t50 33t33 50.5t12 64.5t-12 64.5t-33 50.5t-50 33t-63 12
z" />
    <glyph glyph-name="yen" unicode="&#xa5;" 
d="M549 340q14 0 23.5 -8t9.5 -23q0 -13 -9.5 -21.5t-23.5 -8.5h-192v-82h192q14 0 23.5 -8t9.5 -23q0 -13 -9.5 -21.5t-23.5 -8.5h-192v-104q0 -38 -35 -38t-35 38v104h-192q-14 0 -23.5 8.5t-9.5 21.5q0 15 9.5 23t23.5 8h192v82h-192q-14 0 -23.5 8.5t-9.5 21.5
q0 15 9.5 23t23.5 8h171l-215 254q-10 13 -10 27q0 17 9.5 26t25.5 9q17 0 28 -14l219 -269l217 269q12 14 29 14q15 0 24.5 -9t9.5 -25q0 -14 -10 -27l-216 -255h172z" />
    <glyph glyph-name="brokenbar" unicode="&#xa6;" horiz-adv-x="322" 
d="M161 706q28 0 28 -31v-326q0 -14 -7.5 -22t-20.5 -8q-14 0 -21 8t-7 22v326q0 31 28 31zM161 195q13 0 20.5 -8t7.5 -22v-327q0 -14 -7.5 -22t-20.5 -8q-14 0 -21 8t-7 22v327q0 14 7 22t21 8z" />
    <glyph glyph-name="section" unicode="&#xa7;" horiz-adv-x="607" 
d="M445 154q42 -14 68.5 -44t26.5 -87q0 -78 -62.5 -121t-174.5 -43q-78 0 -135.5 16.5t-92.5 50.5q-10 10 -10 24t8.5 22.5t21.5 8.5t21 -8q58 -56 189 -56q79 0 123 27.5t44 77.5q0 21 -8.5 36.5t-29 27t-55 18.5t-85.5 12q-66 6 -111.5 17.5t-74 31t-41 47.5t-12.5 65
q0 51 26.5 87t76.5 55v2q-40 14 -65.5 43t-25.5 84q0 38 16 68.5t46 51.5t72.5 32.5t95.5 11.5q66 0 119.5 -16t86.5 -46q10 -9 10 -24q0 -14 -8 -22.5t-21 -8.5q-8 0 -14.5 3t-11.5 8q-57 48 -159 48q-77 0 -120.5 -28t-43.5 -77q0 -21 8.5 -36t29 -26t54 -17.5t83.5 -10.5
q66 -5 112.5 -16.5t75 -31t41.5 -47.5t13 -66q0 -51 -28 -87t-79 -55v-2zM123 285q0 -26 11 -45t36 -32t66.5 -21t101.5 -12q69 4 107.5 35t38.5 80q0 27 -11 46.5t-37 33t-68.5 21t-104.5 10.5q-66 -5 -103 -36t-37 -80z" />
    <glyph glyph-name="dieresis" unicode="&#xa8;" horiz-adv-x="500" 
d="M153 585q-18 0 -29 11t-11 30t11 30t29 11q19 0 30 -11t11 -30t-11 -30t-30 -11zM347 585q-19 0 -30 11t-11 30t11 30t30 11q18 0 29 -11t11 -30t-11 -30t-29 -11z" />
    <glyph glyph-name="copyright" unicode="&#xa9;" horiz-adv-x="788" 
d="M394 682q75 0 138.5 -26t110 -72.5t72.5 -110t26 -138.5t-26 -138.5t-72.5 -110t-110 -72.5t-138.5 -26t-138.5 26t-110 72.5t-72.5 110t-26 138.5t26 138.5t72.5 110t110 72.5t138.5 26zM528 262q24 0 24 -24q0 -10 -5 -17q-23 -32 -60 -50.5t-88 -18.5
q-41 0 -74.5 13.5t-57.5 37.5t-37.5 57.5t-13.5 74.5t13.5 75t37.5 58t57.5 37.5t74.5 13.5q47 0 83 -16.5t60 -45.5q6 -8 6 -19t-6.5 -18t-18.5 -7q-14 0 -23 11q-17 22 -42.5 35t-58.5 13q-58 0 -94.5 -38t-36.5 -99t36.5 -99t94.5 -38q35 0 61.5 14t46.5 40q8 10 21 10z
M394 636q-63 0 -117.5 -22.5t-94.5 -63t-62.5 -95.5t-22.5 -120t22.5 -120t62.5 -95t94.5 -63t117.5 -23t117.5 23t94.5 63t62.5 95t22.5 120t-22.5 120t-62.5 95.5t-94.5 63t-117.5 22.5z" />
    <glyph glyph-name="ordfeminine" unicode="&#xaa;" horiz-adv-x="472" 
d="M393 657q14 0 22 -8.5t8 -23.5v-311q0 -15 -8 -23.5t-22 -8.5q-31 0 -31 32v25h-2q-23 -29 -59 -45.5t-84 -16.5q-41 0 -74.5 14t-58 39t-38 60.5t-13.5 78.5t13.5 79t38 61t58 39t74.5 14q48 0 84 -16.5t59 -45.5h2v25q0 32 31 32zM227 333q30 0 54.5 10t42.5 28t28 43
t10 55q0 62 -37.5 99.5t-97.5 37.5q-59 0 -95.5 -37.5t-36.5 -99.5t36.5 -99t95.5 -37z" />
    <glyph glyph-name="guillemotleft" unicode="&#xab;" horiz-adv-x="490" 
d="M230 83q10 -13 10 -24q0 -12 -8 -20t-21 -8t-23 11l-145 169q-12 13 -12 27q0 13 12 27l145 169q10 11 23 11t21 -8t8 -20q0 -11 -10 -24l-134 -155zM432 83q10 -13 10 -24q0 -12 -8 -20t-21 -8t-23 11l-145 169q-12 13 -12 27q0 13 12 27l145 169q10 11 23 11t21 -8
t8 -20q0 -11 -10 -24l-134 -155z" />
    <glyph glyph-name="logicalnot" unicode="&#xac;" 
d="M573 391q14 0 23 -8t9 -21v-251q0 -14 -7.5 -23t-21.5 -9t-21.5 9t-7.5 23v222h-476q-14 0 -23 7.5t-9 21.5q0 13 9 21t23 8h502z" />
    <glyph glyph-name="uni00AD" unicode="&#xad;" horiz-adv-x="402" 
d="M330 300q37 0 37 -34q0 -35 -37 -35h-258q-37 0 -37 35q0 34 37 34h258z" />
    <glyph glyph-name="registered" unicode="&#xae;" horiz-adv-x="788" 
d="M547 201q9 -11 9 -22q0 -25 -25 -25q-13 0 -23 12l-100 125h-103v-111q0 -26 -26 -26q-25 0 -25 26v303q0 28 27 28h155q58 0 88 -27.5t30 -79.5q0 -90 -84 -109v-2zM431 338q35 0 53 16.5t18 46.5t-18 46.5t-53 16.5h-126v-126h126zM394 682q75 0 138.5 -26t110 -72.5
t72.5 -110t26 -138.5t-26 -138.5t-72.5 -110t-110 -72.5t-138.5 -26t-138.5 26t-110 72.5t-72.5 110t-26 138.5t26 138.5t72.5 110t110 72.5t138.5 26zM394 636q-63 0 -117.5 -22.5t-94.5 -63t-62.5 -95.5t-22.5 -120t22.5 -120t62.5 -95t94.5 -63t117.5 -23t117.5 23
t94.5 63t62.5 95t22.5 120t-22.5 120t-62.5 95.5t-94.5 63t-117.5 22.5z" />
    <glyph glyph-name="macron" unicode="&#xaf;" horiz-adv-x="500" 
d="M375 646q32 0 32 -28q0 -27 -32 -27h-250q-31 0 -31 27q0 28 31 28h250z" />
    <glyph glyph-name="degree" unicode="&#xb0;" horiz-adv-x="358" 
d="M179 374q-31 0 -57.5 11t-45.5 30t-30 45.5t-11 57.5t11 57.5t30 45.5t45.5 30t57.5 11t57.5 -11t45.5 -30t30 -45.5t11 -57.5t-11 -57.5t-30 -45.5t-45.5 -30t-57.5 -11zM179 425q38 0 64 26.5t26 66.5t-26 66t-64 26t-64 -26t-26 -66t26 -66.5t64 -26.5z" />
    <glyph glyph-name="plusminus" unicode="&#xb1;" 
d="M71 352q-14 0 -23 7.5t-9 21.5t9 21.5t23 7.5h222v186q0 14 7.5 23t21.5 9q13 0 21 -9t8 -23v-186h222q14 0 23 -7.5t9 -21.5t-9 -21.5t-23 -7.5h-222v-200q0 -14 -8 -23t-21 -9q-14 0 -21.5 9t-7.5 23v200h-222zM573 58q14 0 23 -8t9 -21q0 -14 -9 -21.5t-23 -7.5h-502
q-14 0 -23 7.5t-9 21.5q0 13 9 21t23 8h502z" />
    <glyph glyph-name="uni00B2" unicode="&#xb2;" horiz-adv-x="400" 
d="M333 441q26 0 26 -24t-26 -24h-252q-12 0 -19.5 7.5t-7.5 21.5v7q0 65 33 104.5t114 64.5q56 17 76.5 36.5t20.5 49.5q0 32 -23.5 51t-64.5 19q-68 0 -102 -56q-8 -12 -22 -12q-11 0 -18 7t-7 18q0 8 4 16q20 35 58.5 55t86.5 20q65 0 103 -32t38 -86q0 -24 -6 -43.5
t-20.5 -34.5t-38.5 -27.5t-60 -22.5q-65 -19 -92.5 -45.5t-29.5 -69.5h229z" />
    <glyph glyph-name="uni00B3" unicode="&#xb3;" horiz-adv-x="400" 
d="M291 600q67 -22 67 -93q0 -57 -40.5 -89t-112.5 -32q-50 0 -88 17.5t-58 47.5q-6 9 -6 18q0 11 7 18.5t18 7.5q13 0 20 -10q38 -51 107 -51q48 0 74 20t26 57q0 64 -92 66h-35q-26 0 -26 24t26 24h35q82 0 82 61q0 32 -23.5 50t-66.5 18q-33 0 -58.5 -13.5t-42.5 -35.5
q-8 -9 -20 -9q-11 0 -18 7.5t-7 18.5q0 9 6 18q21 29 57.5 45.5t82.5 16.5q67 0 105 -29.5t38 -81.5q0 -67 -57 -89v-2z" />
    <glyph glyph-name="acute" unicode="&#xb4;" horiz-adv-x="500" 
d="M374 693q0 -14 -12 -26l-121 -113q-8 -7 -19 -7q-12 0 -19 7.5t-7 18.5q0 13 10 22l117 117q9 9 23 9q13 0 20.5 -8t7.5 -20z" />
    <glyph glyph-name="mu" unicode="&#xb5;" horiz-adv-x="585" 
d="M486 482q34 0 34 -37v-416q0 -16 -9.5 -25.5t-24.5 -9.5q-17 0 -26 9.5t-9 25.5v45h-2q-27 -41 -72 -63.5t-106 -22.5q-89 0 -137 45v-188q0 -37 -34 -37q-35 0 -35 37v600q0 37 35 37q34 0 34 -37v-228q0 -83 38.5 -125t113.5 -42t120 49.5t45 136.5v209q0 37 35 37z
" />
    <glyph glyph-name="paragraph" unicode="&#xb6;" horiz-adv-x="659" 
d="M552 700q33 0 33 -33v-828q0 -31 -29 -31q-28 0 -28 31v806h-173v-806q0 -31 -29 -31q-28 0 -28 31v404h-38q-113 0 -173 58.5t-60 170.5q0 110 60 169t173 59h292z" />
    <glyph glyph-name="periodcentered" unicode="&#xb7;" horiz-adv-x="228" 
d="M114 280q-20 0 -32.5 12.5t-12.5 32.5q0 21 12.5 33.5t32.5 12.5t33 -12.5t13 -33.5q0 -20 -13 -32.5t-33 -12.5z" />
    <glyph glyph-name="cedilla" unicode="&#xb8;" horiz-adv-x="500" 
d="M266 -59q43 -1 63 -18.5t20 -48.5q0 -32 -25 -52t-70 -20q-61 0 -90 28q-8 8 -8 18t6 16.5t15 6.5q6 0 10 -2t8 -5q12 -8 24 -12t32 -4q22 0 32.5 8t10.5 19q0 12 -11 18.5t-40 6.5q-25 0 -22 25l10 83h42z" />
    <glyph glyph-name="uni00B9" unicode="&#xb9;" horiz-adv-x="400" 
d="M266 795q12 0 20 -7.5t8 -21.5v-348q0 -29 -26 -29q-27 0 -27 29v329h-110q-25 0 -25 24t25 24h135z" />
    <glyph glyph-name="ordmasculine" unicode="&#xba;" horiz-adv-x="463" 
d="M36 469q0 43 14.5 78.5t40.5 61t62 39.5t79 14t79 -14t61.5 -39.5t40 -61t14.5 -78.5t-14.5 -78t-40 -60.5t-61.5 -39.5t-79 -14t-79 14t-62 39.5t-40.5 60.5t-14.5 78zM98 469q0 -62 37 -99t97 -37t96.5 37t36.5 99t-36.5 99.5t-96.5 37.5t-97 -37.5t-37 -99.5z" />
    <glyph glyph-name="guillemotright" unicode="&#xbb;" horiz-adv-x="490" 
d="M259 393q-10 13 -10 24q0 12 8 20t21 8t23 -11l145 -169q12 -14 12 -27q0 -14 -12 -27l-145 -169q-10 -11 -23 -11t-21 8t-8 20q0 11 10 24l134 155zM57 393q-10 13 -10 24q0 12 8 20t21 8t23 -11l145 -169q12 -14 12 -27q0 -14 -12 -27l-145 -169q-10 -11 -23 -11t-21 8
t-8 20q0 11 10 24l134 155z" />
    <glyph glyph-name="onequarter" unicode="&#xbc;" horiz-adv-x="926" 
d="M713 656q11 0 18.5 -7t7.5 -17q0 -9 -7 -19l-424 -606q-10 -13 -21 -13t-18.5 7t-7.5 17q0 9 7 19l424 606q10 13 21 13zM883 140q26 0 26 -23q0 -25 -26 -25h-37v-67q0 -29 -27 -29q-11 0 -18.5 7.5t-7.5 21.5v67h-203q-13 0 -20.5 7t-7.5 18q0 8 2 14t9 14l211 245
q15 16 32 16q14 0 22 -9.5t8 -24.5v-232h37zM793 140v184l-158 -184h158zM266 650q12 0 20 -7.5t8 -21.5v-348q0 -29 -26 -29q-27 0 -27 29v329h-110q-25 0 -25 24t25 24h135z" />
    <glyph glyph-name="onehalf" unicode="&#xbd;" horiz-adv-x="926" 
d="M676 656q11 0 18.5 -7t7.5 -17q0 -9 -7 -19l-424 -606q-10 -13 -21 -13t-18.5 7t-7.5 17q0 9 7 19l424 606q10 13 21 13zM859 48q26 0 26 -24t-26 -24h-252q-12 0 -19.5 7.5t-7.5 21.5v7q0 65 33 104.5t114 64.5q56 17 76.5 36.5t20.5 49.5q0 32 -23.5 51t-64.5 19
q-68 0 -102 -56q-8 -12 -22 -12q-11 0 -18 7t-7 18q0 8 4 16q20 35 58.5 55t86.5 20q65 0 103 -32t38 -86q0 -24 -6 -43.5t-20.5 -34.5t-38.5 -27.5t-60 -22.5q-65 -19 -92.5 -45.5t-29.5 -69.5h229zM266 650q12 0 20 -7.5t8 -21.5v-348q0 -29 -26 -29q-27 0 -27 29v329
h-110q-25 0 -25 24t25 24h135z" />
    <glyph glyph-name="threequarters" unicode="&#xbe;" horiz-adv-x="926" 
d="M714 656q11 0 18.5 -7t7.5 -17q0 -9 -7 -19l-424 -606q-10 -13 -21 -13t-18.5 7t-7.5 17q0 9 7 19l424 606q10 13 21 13zM883 140q26 0 26 -23q0 -25 -26 -25h-37v-67q0 -29 -27 -29q-11 0 -18.5 7.5t-7.5 21.5v67h-203q-13 0 -20.5 7t-7.5 18q0 8 2 14t9 14l211 245
q15 16 32 16q14 0 22 -9.5t8 -24.5v-232h37zM793 140v184l-158 -184h158zM291 455q67 -22 67 -93q0 -57 -40.5 -89t-112.5 -32q-50 0 -88 17.5t-58 47.5q-6 9 -6 18q0 11 7 18.5t18 7.5q13 0 20 -10q38 -51 107 -51q48 0 74 20t26 57q0 64 -92 66h-35q-26 0 -26 24t26 24h35
q82 0 82 61q0 32 -23.5 50t-66.5 18q-33 0 -58.5 -13.5t-42.5 -35.5q-8 -9 -20 -9q-11 0 -18 7.5t-7 18.5q0 9 6 18q21 29 57.5 45.5t82.5 16.5q67 0 105 -29.5t38 -81.5q0 -67 -57 -89v-2z" />
    <glyph glyph-name="questiondown" unicode="&#xbf;" horiz-adv-x="494" 
d="M255 -6q-109 0 -171 50.5t-62 138.5q0 31 7.5 56t24 46.5t43.5 40t66 35.5q28 12 47.5 24t31 24t17 25t5.5 29q0 35 32 35q15 0 24 -9t9 -26q0 -26 -6.5 -47.5t-21 -40t-38.5 -34.5t-59 -32q-62 -28 -86.5 -55.5t-24.5 -69.5q0 -59 42 -92.5t117 -33.5q56 0 101 22.5
t73 64.5q8 13 27 13q14 0 24 -10t10 -24q0 -12 -7 -22q-36 -52 -94.5 -80t-130.5 -28zM296 594q-20 0 -32 12t-12 32t12 32t32 12t32 -12t12 -32t-12 -32t-32 -12z" />
    <glyph glyph-name="Agrave" unicode="&#xc0;" horiz-adv-x="718" 
d="M359 682q145 0 223 -80t78 -232v-336q0 -40 -37 -40q-17 0 -26.5 10.5t-9.5 29.5v177h-457v-178q0 -18 -9.5 -28.5t-26.5 -10.5t-26.5 10.5t-9.5 28.5v337q0 152 77.5 232t223.5 80zM587 372q0 121 -58.5 182t-170.5 61t-170 -61t-58 -182v-94h457v94zM233 882
q0 12 7.5 20t20.5 8q14 0 23 -9l117 -117q10 -9 10 -22q0 -11 -7 -18.5t-19 -7.5q-11 0 -19 7l-121 113q-12 12 -12 26z" />
    <glyph glyph-name="Aacute" unicode="&#xc1;" horiz-adv-x="718" 
d="M359 682q145 0 223 -80t78 -232v-336q0 -40 -37 -40q-17 0 -26.5 10.5t-9.5 29.5v177h-457v-178q0 -18 -9.5 -28.5t-26.5 -10.5t-26.5 10.5t-9.5 28.5v337q0 152 77.5 232t223.5 80zM587 372q0 121 -58.5 182t-170.5 61t-170 -61t-58 -182v-94h457v94zM485 882
q0 -14 -12 -26l-121 -113q-8 -7 -19 -7q-12 0 -19 7.5t-7 18.5q0 13 10 22l117 117q9 9 23 9q13 0 20.5 -8t7.5 -20z" />
    <glyph glyph-name="Acircumflex" unicode="&#xc2;" horiz-adv-x="718" 
d="M359 682q145 0 223 -80t78 -232v-336q0 -40 -37 -40q-17 0 -26.5 10.5t-9.5 29.5v177h-457v-178q0 -18 -9.5 -28.5t-26.5 -10.5t-26.5 10.5t-9.5 28.5v337q0 152 77.5 232t223.5 80zM587 372q0 121 -58.5 182t-170.5 61t-170 -61t-58 -182v-94h457v94zM359 910
q14 0 27 -11l121 -115q11 -10 11 -22q0 -11 -7.5 -18.5t-19.5 -7.5q-10 0 -18 8l-114 103l-114 -103q-8 -8 -18 -8q-12 0 -19.5 7.5t-7.5 18.5q0 12 11 22l121 115q13 11 27 11z" />
    <glyph glyph-name="Atilde" unicode="&#xc3;" horiz-adv-x="718" 
d="M359 682q145 0 223 -80t78 -232v-336q0 -40 -37 -40q-17 0 -26.5 10.5t-9.5 29.5v177h-457v-178q0 -18 -9.5 -28.5t-26.5 -10.5t-26.5 10.5t-9.5 28.5v337q0 152 77.5 232t223.5 80zM587 372q0 121 -58.5 182t-170.5 61t-170 -61t-58 -182v-94h457v94zM425 751
q-24 0 -42.5 9.5t-40.5 32.5q-16 16 -26.5 22t-22.5 6q-17 0 -30.5 -13.5t-24.5 -43.5q-5 -15 -22 -15q-26 0 -26 26v5.5t2 8.5q12 41 39.5 65t60.5 24q24 0 42.5 -9.5t40.5 -32.5q16 -16 26.5 -22t22.5 -6q17 0 30.5 13.5t24.5 43.5q5 15 22 15q26 0 26 -26v-5.5t-2 -8.5
q-12 -41 -39.5 -65t-60.5 -24z" />
    <glyph glyph-name="Adieresis" unicode="&#xc4;" horiz-adv-x="718" 
d="M359 682q145 0 223 -80t78 -232v-336q0 -40 -37 -40q-17 0 -26.5 10.5t-9.5 29.5v177h-457v-178q0 -18 -9.5 -28.5t-26.5 -10.5t-26.5 10.5t-9.5 28.5v337q0 152 77.5 232t223.5 80zM587 372q0 121 -58.5 182t-170.5 61t-170 -61t-58 -182v-94h457v94zM262 774
q-18 0 -29 11t-11 30t11 30t29 11q19 0 30 -11t11 -30t-11 -30t-30 -11zM456 774q-19 0 -30 11t-11 30t11 30t30 11q18 0 29 -11t11 -30t-11 -30t-29 -11z" />
    <glyph glyph-name="Aring" unicode="&#xc5;" horiz-adv-x="718" 
d="M359 682q145 0 223 -80t78 -232v-336q0 -40 -37 -40q-17 0 -26.5 10.5t-9.5 29.5v177h-457v-178q0 -18 -9.5 -28.5t-26.5 -10.5t-26.5 10.5t-9.5 28.5v337q0 152 77.5 232t223.5 80zM587 372q0 121 -58.5 182t-170.5 61t-170 -61t-58 -182v-94h457v94zM359 727
q-43 0 -70.5 27.5t-27.5 69.5q0 43 27.5 70.5t70.5 27.5t70.5 -27.5t27.5 -70.5q0 -42 -27.5 -69.5t-70.5 -27.5zM359 774q20 0 34 15t14 35q0 21 -14 35.5t-34 14.5t-34 -14.5t-14 -35.5q0 -20 14 -35t34 -15z" />
    <glyph glyph-name="AE" unicode="&#xc6;" horiz-adv-x="1169" 
d="M1100 67q37 0 37 -34q0 -15 -10 -24t-27 -9h-474q-18 0 -28.5 10.5t-10.5 29.5v171h-457v-178q0 -18 -9.5 -28.5t-26.5 -10.5t-26.5 10.5t-9.5 28.5v337q0 154 75 233t219 79q165 0 233 -105h2v53q0 40 39 40h474q17 0 27 -9t10 -24q0 -34 -37 -34h-440v-232h366
q37 0 37 -33q0 -34 -37 -34h-366v-237h440zM587 372q0 121 -58 182t-171 61q-112 0 -170 -61t-58 -182v-94h457v94z" />
    <glyph glyph-name="Ccedilla" unicode="&#xc7;" horiz-adv-x="707" 
d="M642 180q15 0 25 -10t10 -25q0 -13 -6 -22q-42 -60 -111.5 -96.5t-162.5 -38.5l-5 -47q43 -1 63 -18.5t20 -48.5q0 -32 -25 -52t-70 -20q-61 0 -90 28q-8 8 -8 18t6 16.5t15 6.5q6 0 10 -2t8 -5q12 -8 24 -12t32 -4q22 0 32.5 8t10.5 19q0 12 -11 18.5t-40 6.5
q-25 0 -22 25l8 64q-70 6 -127.5 33t-98.5 72.5t-63.5 106.5t-22.5 134q0 77 25 141t70.5 109.5t109 71t140.5 25.5q88 0 156.5 -31.5t114.5 -88.5q10 -12 10 -27t-9.5 -25t-25.5 -10q-19 0 -31 16q-35 47 -90 73t-125 26q-60 0 -110 -20.5t-86 -57.5t-55.5 -88.5
t-19.5 -113.5t19.5 -113.5t55.5 -88.5t86 -57.5t110 -20.5q73 0 129 28t94 81q11 16 31 16z" />
    <glyph glyph-name="Egrave" unicode="&#xc8;" horiz-adv-x="651" 
d="M583 67q17 0 26.5 -9t9.5 -25q0 -15 -9.5 -24t-26.5 -9h-475q-39 0 -39 40v590q0 40 39 40h475q17 0 26.5 -9t9.5 -24q0 -16 -9.5 -25t-26.5 -9h-441v-232h367q17 0 26.5 -8.5t9.5 -24.5q0 -17 -9.5 -25.5t-26.5 -8.5h-367v-237h441zM215 882q0 12 7.5 20t20.5 8
q14 0 23 -9l117 -117q10 -9 10 -22q0 -11 -7 -18.5t-19 -7.5q-11 0 -19 7l-121 113q-12 12 -12 26z" />
    <glyph glyph-name="Eacute" unicode="&#xc9;" horiz-adv-x="651" 
d="M583 67q17 0 26.5 -9t9.5 -25q0 -15 -9.5 -24t-26.5 -9h-475q-39 0 -39 40v590q0 40 39 40h475q17 0 26.5 -9t9.5 -24q0 -16 -9.5 -25t-26.5 -9h-441v-232h367q17 0 26.5 -8.5t9.5 -24.5q0 -17 -9.5 -25.5t-26.5 -8.5h-367v-237h441zM467 882q0 -14 -12 -26l-121 -113
q-8 -7 -19 -7q-12 0 -19 7.5t-7 18.5q0 13 10 22l117 117q9 9 23 9q13 0 20.5 -8t7.5 -20z" />
    <glyph glyph-name="Ecircumflex" unicode="&#xca;" horiz-adv-x="651" 
d="M583 67q17 0 26.5 -9t9.5 -25q0 -15 -9.5 -24t-26.5 -9h-475q-39 0 -39 40v590q0 40 39 40h475q17 0 26.5 -9t9.5 -24q0 -16 -9.5 -25t-26.5 -9h-441v-232h367q17 0 26.5 -8.5t9.5 -24.5q0 -17 -9.5 -25.5t-26.5 -8.5h-367v-237h441zM341 910q14 0 27 -11l121 -115
q11 -10 11 -22q0 -11 -7.5 -18.5t-19.5 -7.5q-10 0 -18 8l-114 103l-114 -103q-8 -8 -18 -8q-12 0 -19.5 7.5t-7.5 18.5q0 12 11 22l121 115q13 11 27 11z" />
    <glyph glyph-name="Edieresis" unicode="&#xcb;" horiz-adv-x="651" 
d="M583 67q17 0 26.5 -9t9.5 -25q0 -15 -9.5 -24t-26.5 -9h-475q-39 0 -39 40v590q0 40 39 40h475q17 0 26.5 -9t9.5 -24q0 -16 -9.5 -25t-26.5 -9h-441v-232h367q17 0 26.5 -8.5t9.5 -24.5q0 -17 -9.5 -25.5t-26.5 -8.5h-367v-237h441zM244 774q-18 0 -29 11t-11 30t11 30
t29 11q19 0 30 -11t11 -30t-11 -30t-30 -11zM438 774q-19 0 -30 11t-11 30t11 30t30 11q18 0 29 -11t11 -30t-11 -30t-29 -11z" />
    <glyph glyph-name="Igrave" unicode="&#xcc;" horiz-adv-x="211" 
d="M105 676q37 0 37 -40v-602q0 -40 -37 -40q-36 0 -36 40v602q0 40 36 40zM-21 882q0 12 7.5 20t20.5 8q14 0 23 -9l117 -117q10 -9 10 -22q0 -11 -7 -18.5t-19 -7.5q-11 0 -19 7l-121 113q-12 12 -12 26z" />
    <glyph glyph-name="Iacute" unicode="&#xcd;" horiz-adv-x="211" 
d="M105 676q37 0 37 -40v-602q0 -40 -37 -40q-36 0 -36 40v602q0 40 36 40zM231 882q0 -14 -12 -26l-121 -113q-8 -7 -19 -7q-12 0 -19 7.5t-7 18.5q0 13 10 22l117 117q9 9 23 9q13 0 20.5 -8t7.5 -20z" />
    <glyph glyph-name="Icircumflex" unicode="&#xce;" horiz-adv-x="211" 
d="M105 676q37 0 37 -40v-602q0 -40 -37 -40q-36 0 -36 40v602q0 40 36 40zM105 910q14 0 27 -11l121 -115q11 -10 11 -22q0 -11 -7.5 -18.5t-19.5 -7.5q-10 0 -18 8l-114 103l-114 -103q-8 -8 -18 -8q-12 0 -19.5 7.5t-7.5 18.5q0 12 11 22l121 115q13 11 27 11z" />
    <glyph glyph-name="Idieresis" unicode="&#xcf;" horiz-adv-x="211" 
d="M105 676q37 0 37 -40v-602q0 -40 -37 -40q-36 0 -36 40v602q0 40 36 40zM8 774q-18 0 -29 11t-11 30t11 30t29 11q19 0 30 -11t11 -30t-11 -30t-30 -11zM202 774q-19 0 -30 11t-11 30t11 30t30 11q18 0 29 -11t11 -30t-11 -30t-29 -11z" />
    <glyph glyph-name="Eth" unicode="&#xd0;" horiz-adv-x="734" 
d="M334 670q84 0 150.5 -23t112.5 -66t70.5 -105t24.5 -141t-24.5 -141t-70.5 -105t-112.5 -66t-150.5 -23h-218q-39 0 -39 40v265h-37q-17 0 -27 9t-10 24q0 34 37 34h37v258q0 40 39 40h218zM339 67q65 0 117 18t88 52.5t55 84.5t19 113t-19 112.5t-55 84t-88 53
t-117 18.5h-189v-231h182q37 0 37 -34q0 -15 -10 -24t-27 -9h-182v-238h189z" />
    <glyph glyph-name="Ntilde" unicode="&#xd1;" horiz-adv-x="729" 
d="M624 676q17 0 26.5 -10.5t9.5 -28.5v-599q0 -20 -12 -32t-31 -12q-11 0 -20.5 3.5t-18.5 14.5l-435 543h-2v-522q0 -18 -9.5 -28.5t-26.5 -10.5t-26.5 10.5t-9.5 28.5v598q0 20 11 32.5t31 12.5q11 0 20.5 -3.5t18.5 -14.5l436 -543h2v522q0 18 9.5 28.5t26.5 10.5z
M430 751q-24 0 -42.5 9.5t-40.5 32.5q-16 16 -26.5 22t-22.5 6q-17 0 -30.5 -13.5t-24.5 -43.5q-5 -15 -22 -15q-26 0 -26 26v5.5t2 8.5q12 41 39.5 65t60.5 24q24 0 42.5 -9.5t40.5 -32.5q16 -16 26.5 -22t22.5 -6q17 0 30.5 13.5t24.5 43.5q5 15 22 15q26 0 26 -26v-5.5
t-2 -8.5q-12 -41 -39.5 -65t-60.5 -24z" />
    <glyph glyph-name="Ograve" unicode="&#xd2;" horiz-adv-x="777" 
d="M43 335q0 77 25 141t70.5 109.5t109 71t140.5 25.5t141 -25.5t109.5 -71t70.5 -109.5t25 -141t-25 -141t-70.5 -110t-109.5 -71t-141 -25t-140.5 25t-109 71t-70.5 110t-25 141zM117 335q0 -62 19.5 -113.5t55.5 -88.5t86 -57.5t110 -20.5t110 20.5t86 57.5t56 88.5
t20 113.5t-20 113.5t-56 88.5t-86 57.5t-110 20.5t-110 -20.5t-86 -57.5t-55.5 -88.5t-19.5 -113.5zM262 882q0 12 7.5 20t20.5 8q14 0 23 -9l117 -117q10 -9 10 -22q0 -11 -7 -18.5t-19 -7.5q-11 0 -19 7l-121 113q-12 12 -12 26z" />
    <glyph glyph-name="Oacute" unicode="&#xd3;" horiz-adv-x="777" 
d="M43 335q0 77 25 141t70.5 109.5t109 71t140.5 25.5t141 -25.5t109.5 -71t70.5 -109.5t25 -141t-25 -141t-70.5 -110t-109.5 -71t-141 -25t-140.5 25t-109 71t-70.5 110t-25 141zM117 335q0 -62 19.5 -113.5t55.5 -88.5t86 -57.5t110 -20.5t110 20.5t86 57.5t56 88.5
t20 113.5t-20 113.5t-56 88.5t-86 57.5t-110 20.5t-110 -20.5t-86 -57.5t-55.5 -88.5t-19.5 -113.5zM514 882q0 -14 -12 -26l-121 -113q-8 -7 -19 -7q-12 0 -19 7.5t-7 18.5q0 13 10 22l117 117q9 9 23 9q13 0 20.5 -8t7.5 -20z" />
    <glyph glyph-name="Ocircumflex" unicode="&#xd4;" horiz-adv-x="777" 
d="M43 335q0 77 25 141t70.5 109.5t109 71t140.5 25.5t141 -25.5t109.5 -71t70.5 -109.5t25 -141t-25 -141t-70.5 -110t-109.5 -71t-141 -25t-140.5 25t-109 71t-70.5 110t-25 141zM117 335q0 -62 19.5 -113.5t55.5 -88.5t86 -57.5t110 -20.5t110 20.5t86 57.5t56 88.5
t20 113.5t-20 113.5t-56 88.5t-86 57.5t-110 20.5t-110 -20.5t-86 -57.5t-55.5 -88.5t-19.5 -113.5zM388 910q14 0 27 -11l121 -115q11 -10 11 -22q0 -11 -7.5 -18.5t-19.5 -7.5q-10 0 -18 8l-114 103l-114 -103q-8 -8 -18 -8q-12 0 -19.5 7.5t-7.5 18.5q0 12 11 22l121 115
q13 11 27 11z" />
    <glyph glyph-name="Otilde" unicode="&#xd5;" horiz-adv-x="777" 
d="M43 335q0 77 25 141t70.5 109.5t109 71t140.5 25.5t141 -25.5t109.5 -71t70.5 -109.5t25 -141t-25 -141t-70.5 -110t-109.5 -71t-141 -25t-140.5 25t-109 71t-70.5 110t-25 141zM117 335q0 -62 19.5 -113.5t55.5 -88.5t86 -57.5t110 -20.5t110 20.5t86 57.5t56 88.5
t20 113.5t-20 113.5t-56 88.5t-86 57.5t-110 20.5t-110 -20.5t-86 -57.5t-55.5 -88.5t-19.5 -113.5zM454 751q-24 0 -42.5 9.5t-40.5 32.5q-16 16 -26.5 22t-22.5 6q-17 0 -30.5 -13.5t-24.5 -43.5q-5 -15 -22 -15q-26 0 -26 26v5.5t2 8.5q12 41 39.5 65t60.5 24
q24 0 42.5 -9.5t40.5 -32.5q16 -16 26.5 -22t22.5 -6q17 0 30.5 13.5t24.5 43.5q5 15 22 15q26 0 26 -26v-5.5t-2 -8.5q-12 -41 -39.5 -65t-60.5 -24z" />
    <glyph glyph-name="Odieresis" unicode="&#xd6;" horiz-adv-x="777" 
d="M43 335q0 77 25 141t70.5 109.5t109 71t140.5 25.5t141 -25.5t109.5 -71t70.5 -109.5t25 -141t-25 -141t-70.5 -110t-109.5 -71t-141 -25t-140.5 25t-109 71t-70.5 110t-25 141zM117 335q0 -62 19.5 -113.5t55.5 -88.5t86 -57.5t110 -20.5t110 20.5t86 57.5t56 88.5
t20 113.5t-20 113.5t-56 88.5t-86 57.5t-110 20.5t-110 -20.5t-86 -57.5t-55.5 -88.5t-19.5 -113.5zM291 774q-18 0 -29 11t-11 30t11 30t29 11q19 0 30 -11t11 -30t-11 -30t-30 -11zM485 774q-19 0 -30 11t-11 30t11 30t30 11q18 0 29 -11t11 -30t-11 -30t-29 -11z" />
    <glyph glyph-name="multiply" unicode="&#xd7;" 
d="M562 96q11 -11 11 -23t-8.5 -20.5t-20.5 -8.5t-23 11l-199 199l-199 -199q-11 -11 -23 -11t-20.5 8.5t-8.5 20.5t11 23l199 199l-199 199q-11 11 -11 23t8.5 20.5t20.5 8.5t23 -11l199 -199l199 199q11 11 23 11t20.5 -8.5t8.5 -20.5t-11 -23l-199 -199z" />
    <glyph glyph-name="Oslash" unicode="&#xd8;" horiz-adv-x="777" 
d="M662 559q35 -45 53.5 -101t18.5 -123q0 -77 -25 -141t-70.5 -110t-109.5 -71t-141 -25q-69 0 -126 20t-102 57l-59 -58q-13 -13 -28 -13q-13 0 -21.5 8t-8.5 22q0 16 12 28l60 59q-35 45 -53.5 101t-18.5 123q0 77 25 141t70.5 109.5t109 71t140.5 25.5q69 0 126.5 -20
t102.5 -57l59 58q13 13 28 13q13 0 21.5 -8t8.5 -22q0 -16 -12 -28zM117 335q0 -51 13 -94t37 -78l399 392q-35 29 -79.5 44.5t-98.5 15.5q-60 0 -110 -20.5t-86 -57.5t-55.5 -88.5t-19.5 -113.5zM660 335q0 101 -51 172l-398 -392q35 -29 79.5 -44.5t97.5 -15.5
q60 0 110 20.5t86 57.5t56 88.5t20 113.5z" />
    <glyph glyph-name="Ugrave" unicode="&#xd9;" horiz-adv-x="689" 
d="M595 676q17 0 26.5 -10.5t9.5 -28.5v-349q0 -149 -72.5 -224.5t-212.5 -75.5q-141 0 -214.5 75.5t-73.5 224.5v348q0 40 36 40q37 0 37 -40v-348q0 -116 54.5 -174.5t160.5 -58.5q104 0 158.5 58.5t54.5 174.5v349q0 18 9.5 28.5t26.5 10.5zM218 882q0 12 7.5 20t20.5 8
q14 0 23 -9l117 -117q10 -9 10 -22q0 -11 -7 -18.5t-19 -7.5q-11 0 -19 7l-121 113q-12 12 -12 26z" />
    <glyph glyph-name="Uacute" unicode="&#xda;" horiz-adv-x="689" 
d="M595 676q17 0 26.5 -10.5t9.5 -28.5v-349q0 -149 -72.5 -224.5t-212.5 -75.5q-141 0 -214.5 75.5t-73.5 224.5v348q0 40 36 40q37 0 37 -40v-348q0 -116 54.5 -174.5t160.5 -58.5q104 0 158.5 58.5t54.5 174.5v349q0 18 9.5 28.5t26.5 10.5zM470 882q0 -14 -12 -26
l-121 -113q-8 -7 -19 -7q-12 0 -19 7.5t-7 18.5q0 13 10 22l117 117q9 9 23 9q13 0 20.5 -8t7.5 -20z" />
    <glyph glyph-name="Ucircumflex" unicode="&#xdb;" horiz-adv-x="689" 
d="M595 676q17 0 26.5 -10.5t9.5 -28.5v-349q0 -149 -72.5 -224.5t-212.5 -75.5q-141 0 -214.5 75.5t-73.5 224.5v348q0 40 36 40q37 0 37 -40v-348q0 -116 54.5 -174.5t160.5 -58.5q104 0 158.5 58.5t54.5 174.5v349q0 18 9.5 28.5t26.5 10.5zM344 910q14 0 27 -11
l121 -115q11 -10 11 -22q0 -11 -7.5 -18.5t-19.5 -7.5q-10 0 -18 8l-114 103l-114 -103q-8 -8 -18 -8q-12 0 -19.5 7.5t-7.5 18.5q0 12 11 22l121 115q13 11 27 11z" />
    <glyph glyph-name="Udieresis" unicode="&#xdc;" horiz-adv-x="689" 
d="M595 676q17 0 26.5 -10.5t9.5 -28.5v-349q0 -149 -72.5 -224.5t-212.5 -75.5q-141 0 -214.5 75.5t-73.5 224.5v348q0 40 36 40q37 0 37 -40v-348q0 -116 54.5 -174.5t160.5 -58.5q104 0 158.5 58.5t54.5 174.5v349q0 18 9.5 28.5t26.5 10.5zM247 774q-18 0 -29 11t-11 30
t11 30t29 11q19 0 30 -11t11 -30t-11 -30t-30 -11zM441 774q-19 0 -30 11t-11 30t11 30t30 11q18 0 29 -11t11 -30t-11 -30t-29 -11z" />
    <glyph glyph-name="Yacute" unicode="&#xdd;" horiz-adv-x="641" 
d="M357 34q0 -40 -36 -40q-37 0 -37 40v256l-269 320q-5 7 -8 13.5t-3 15.5q0 17 10 27t27 10t31 -15l249 -302l249 299q7 8 14 13t17 5q16 0 26 -9.5t10 -26.5q0 -15 -10 -28l-270 -323v-255zM447 882q0 -14 -12 -26l-121 -113q-8 -7 -19 -7q-12 0 -19 7.5t-7 18.5
q0 13 10 22l117 117q9 9 23 9q13 0 20.5 -8t7.5 -20z" />
    <glyph glyph-name="Thorn" unicode="&#xde;" horiz-adv-x="659" 
d="M418 556q107 0 162.5 -52t55.5 -152t-55.5 -152t-162.5 -52h-276v-114q0 -40 -37 -40q-36 0 -36 40v596q0 40 36 40q37 0 37 -40v-74h276zM412 215q74 0 112 35t38 102t-38 102t-112 35h-270v-274h270z" />
    <glyph glyph-name="germandbls" unicode="&#xdf;" horiz-adv-x="604" 
d="M362 365q0 -27 18 -43.5t67 -29.5q72 -19 100.5 -55t28.5 -100q0 -33 -13.5 -60.5t-38.5 -47t-59 -30.5t-76 -11q-119 0 -175 59q-9 10 -9 24t8.5 23t22.5 9t23 -9q20 -21 52.5 -32.5t72.5 -11.5q56 0 89 23.5t33 64.5q0 38 -21 59.5t-76 35.5q-66 16 -91.5 45.5
t-25.5 82.5q0 37 15 63.5t52 52.5q28 20 39 37.5t11 37.5q0 46 -33 72t-91 26q-79 0 -115 -34t-36 -109v-476q0 -37 -34 -37q-35 0 -35 37v475q0 206 219 206q89 0 141 -42t52 -114q0 -39 -15.5 -67.5t-53.5 -55.5q-27 -20 -36.5 -34.5t-9.5 -33.5z" />
    <glyph glyph-name="agrave" unicode="&#xe0;" horiz-adv-x="611" 
d="M512 482q34 0 34 -37v-414q0 -37 -34 -37q-35 0 -35 37v47h-2q-29 -43 -77.5 -66.5t-113.5 -23.5q-54 0 -98.5 18t-76 51t-49 79t-17.5 102t17.5 102t49 79t76 51t98.5 18q65 0 113.5 -23.5t77.5 -66.5h2v47q0 37 35 37zM295 50q40 0 73.5 13.5t57.5 38.5t37.5 59.5
t13.5 76.5t-13.5 76.5t-37.5 59t-57.5 38.5t-73.5 14q-41 0 -74.5 -13.5t-57.5 -38.5t-37 -59.5t-13 -76.5t13 -76.5t37 -59.5t57.5 -38.5t74.5 -13.5zM169 693q0 12 7.5 20t20.5 8q14 0 23 -9l117 -117q10 -9 10 -22q0 -11 -7 -18.5t-19 -7.5q-11 0 -19 7l-121 113
q-12 12 -12 26z" />
    <glyph glyph-name="aacute" unicode="&#xe1;" horiz-adv-x="611" 
d="M512 482q34 0 34 -37v-414q0 -37 -34 -37q-35 0 -35 37v47h-2q-29 -43 -77.5 -66.5t-113.5 -23.5q-54 0 -98.5 18t-76 51t-49 79t-17.5 102t17.5 102t49 79t76 51t98.5 18q65 0 113.5 -23.5t77.5 -66.5h2v47q0 37 35 37zM295 50q40 0 73.5 13.5t57.5 38.5t37.5 59.5
t13.5 76.5t-13.5 76.5t-37.5 59t-57.5 38.5t-73.5 14q-41 0 -74.5 -13.5t-57.5 -38.5t-37 -59.5t-13 -76.5t13 -76.5t37 -59.5t57.5 -38.5t74.5 -13.5zM421 693q0 -14 -12 -26l-121 -113q-8 -7 -19 -7q-12 0 -19 7.5t-7 18.5q0 13 10 22l117 117q9 9 23 9q13 0 20.5 -8
t7.5 -20z" />
    <glyph glyph-name="acircumflex" unicode="&#xe2;" horiz-adv-x="611" 
d="M512 482q34 0 34 -37v-414q0 -37 -34 -37q-35 0 -35 37v47h-2q-29 -43 -77.5 -66.5t-113.5 -23.5q-54 0 -98.5 18t-76 51t-49 79t-17.5 102t17.5 102t49 79t76 51t98.5 18q65 0 113.5 -23.5t77.5 -66.5h2v47q0 37 35 37zM295 50q40 0 73.5 13.5t57.5 38.5t37.5 59.5
t13.5 76.5t-13.5 76.5t-37.5 59t-57.5 38.5t-73.5 14q-41 0 -74.5 -13.5t-57.5 -38.5t-37 -59.5t-13 -76.5t13 -76.5t37 -59.5t57.5 -38.5t74.5 -13.5zM295 721q14 0 27 -11l121 -115q11 -10 11 -22q0 -11 -7.5 -18.5t-19.5 -7.5q-10 0 -18 8l-114 103l-114 -103
q-8 -8 -18 -8q-12 0 -19.5 7.5t-7.5 18.5q0 12 11 22l121 115q13 11 27 11z" />
    <glyph glyph-name="atilde" unicode="&#xe3;" horiz-adv-x="611" 
d="M512 482q34 0 34 -37v-414q0 -37 -34 -37q-35 0 -35 37v47h-2q-29 -43 -77.5 -66.5t-113.5 -23.5q-54 0 -98.5 18t-76 51t-49 79t-17.5 102t17.5 102t49 79t76 51t98.5 18q65 0 113.5 -23.5t77.5 -66.5h2v47q0 37 35 37zM295 50q40 0 73.5 13.5t57.5 38.5t37.5 59.5
t13.5 76.5t-13.5 76.5t-37.5 59t-57.5 38.5t-73.5 14q-41 0 -74.5 -13.5t-57.5 -38.5t-37 -59.5t-13 -76.5t13 -76.5t37 -59.5t57.5 -38.5t74.5 -13.5zM361 562q-24 0 -42.5 9.5t-40.5 32.5q-16 16 -26.5 22t-22.5 6q-17 0 -30.5 -13.5t-24.5 -43.5q-5 -15 -22 -15
q-26 0 -26 26v5.5t2 8.5q12 41 39.5 65t60.5 24q24 0 42.5 -9.5t40.5 -32.5q16 -16 26.5 -22t22.5 -6q17 0 30.5 13.5t24.5 43.5q5 15 22 15q26 0 26 -26v-5.5t-2 -8.5q-12 -41 -39.5 -65t-60.5 -24z" />
    <glyph glyph-name="adieresis" unicode="&#xe4;" horiz-adv-x="611" 
d="M512 482q34 0 34 -37v-414q0 -37 -34 -37q-35 0 -35 37v47h-2q-29 -43 -77.5 -66.5t-113.5 -23.5q-54 0 -98.5 18t-76 51t-49 79t-17.5 102t17.5 102t49 79t76 51t98.5 18q65 0 113.5 -23.5t77.5 -66.5h2v47q0 37 35 37zM295 50q40 0 73.5 13.5t57.5 38.5t37.5 59.5
t13.5 76.5t-13.5 76.5t-37.5 59t-57.5 38.5t-73.5 14q-41 0 -74.5 -13.5t-57.5 -38.5t-37 -59.5t-13 -76.5t13 -76.5t37 -59.5t57.5 -38.5t74.5 -13.5zM198 585q-18 0 -29 11t-11 30t11 30t29 11q19 0 30 -11t11 -30t-11 -30t-30 -11zM392 585q-19 0 -30 11t-11 30t11 30
t30 11q18 0 29 -11t11 -30t-11 -30t-29 -11z" />
    <glyph glyph-name="aring" unicode="&#xe5;" horiz-adv-x="611" 
d="M512 482q34 0 34 -37v-414q0 -37 -34 -37q-35 0 -35 37v47h-2q-29 -43 -77.5 -66.5t-113.5 -23.5q-54 0 -98.5 18t-76 51t-49 79t-17.5 102t17.5 102t49 79t76 51t98.5 18q65 0 113.5 -23.5t77.5 -66.5h2v47q0 37 35 37zM295 50q40 0 73.5 13.5t57.5 38.5t37.5 59.5
t13.5 76.5t-13.5 76.5t-37.5 59t-57.5 38.5t-73.5 14q-41 0 -74.5 -13.5t-57.5 -38.5t-37 -59.5t-13 -76.5t13 -76.5t37 -59.5t57.5 -38.5t74.5 -13.5zM295 538q-43 0 -70.5 27.5t-27.5 69.5q0 43 27.5 70.5t70.5 27.5t70.5 -27.5t27.5 -70.5q0 -42 -27.5 -69.5t-70.5 -27.5
zM295 585q20 0 34 15t14 35q0 21 -14 35.5t-34 14.5t-34 -14.5t-14 -35.5q0 -20 14 -35t34 -15z" />
    <glyph glyph-name="ae" unicode="&#xe6;" horiz-adv-x="1007" 
d="M975 256q0 -20 -12 -31t-33 -11h-383q4 -37 19.5 -67t40 -51.5t57 -33.5t71.5 -12q48 0 85 17.5t62 47.5q10 14 28 14q14 0 23 -9t9 -23q0 -11 -6 -20q-32 -42 -80.5 -65.5t-111.5 -23.5q-67 0 -116.5 23.5t-79.5 66.5h-2v-47q0 -37 -34 -37t-34 37v47h-2
q-29 -43 -78 -66.5t-114 -23.5q-54 0 -98.5 18t-76 51t-49 79t-17.5 102t17.5 102t49 79t76 51t98.5 18q65 0 114 -23.5t78 -66.5h2v47q0 37 34 37t34 -37v-47h2q29 43 78 66.5t114 23.5q52 0 95.5 -17t74.5 -47.5t48 -73t17 -94.5zM295 50q40 0 74 13.5t58 38.5t37.5 59.5
t13.5 76.5t-13.5 76.5t-37.5 59t-58 38.5t-74 14q-41 0 -74.5 -13.5t-57.5 -38.5t-37 -59.5t-13 -76.5t13 -76.5t37 -59.5t57.5 -38.5t74.5 -13.5zM909 274q-11 68 -59 110t-120 42q-36 0 -66.5 -11t-54 -31t-39 -48t-21.5 -62h360z" />
    <glyph glyph-name="ccedilla" unicode="&#xe7;" horiz-adv-x="532" 
d="M467 129q14 0 23 -9t9 -23q0 -10 -6 -19q-32 -42 -79 -65t-106 -25l-5 -47q43 -1 63 -18.5t20 -48.5q0 -32 -25 -52t-70 -20q-61 0 -90 28q-8 8 -8 18t6 16.5t15 6.5q6 0 10 -2t8 -5q12 -8 24 -12t32 -4q22 0 32.5 8t10.5 19q0 12 -11 18.5t-40 6.5q-25 0 -22 25l8 64
q-50 5 -91 25t-70.5 52.5t-45.5 76t-16 95.5q0 56 18.5 102t51.5 79t79.5 51t102.5 18q115 0 188 -76q8 -9 8 -22q0 -15 -9 -24t-23 -9t-27 13q-25 26 -60 41t-77 15q-41 0 -74.5 -13.5t-57.5 -38.5t-37 -59.5t-13 -76.5t13 -76.5t37 -59.5t57.5 -38.5t74.5 -13.5
q94 0 148 69q8 10 24 10z" />
    <glyph glyph-name="egrave" unicode="&#xe8;" horiz-adv-x="573" 
d="M540 256q0 -42 -44 -42h-382q8 -74 58 -119t129 -45q48 0 86 17.5t61 47.5q10 14 28 14q14 0 23 -9t9 -23q0 -11 -7 -21q-32 -42 -84 -65t-116 -23q-58 0 -105.5 18t-81.5 51t-52.5 79t-18.5 102t18.5 102t51.5 79t79.5 51t102.5 18q53 0 98 -17.5t77.5 -48.5t51 -73.5
t18.5 -92.5zM295 426q-36 0 -66.5 -11t-54 -31t-38.5 -48t-20 -62h359q-11 69 -59 110.5t-121 41.5zM166 693q0 12 7.5 20t20.5 8q14 0 23 -9l117 -117q10 -9 10 -22q0 -11 -7 -18.5t-19 -7.5q-11 0 -19 7l-121 113q-12 12 -12 26z" />
    <glyph glyph-name="eacute" unicode="&#xe9;" horiz-adv-x="573" 
d="M540 256q0 -42 -44 -42h-382q8 -74 58 -119t129 -45q48 0 86 17.5t61 47.5q10 14 28 14q14 0 23 -9t9 -23q0 -11 -7 -21q-32 -42 -84 -65t-116 -23q-58 0 -105.5 18t-81.5 51t-52.5 79t-18.5 102t18.5 102t51.5 79t79.5 51t102.5 18q53 0 98 -17.5t77.5 -48.5t51 -73.5
t18.5 -92.5zM295 426q-36 0 -66.5 -11t-54 -31t-38.5 -48t-20 -62h359q-11 69 -59 110.5t-121 41.5zM418 693q0 -14 -12 -26l-121 -113q-8 -7 -19 -7q-12 0 -19 7.5t-7 18.5q0 13 10 22l117 117q9 9 23 9q13 0 20.5 -8t7.5 -20z" />
    <glyph glyph-name="ecircumflex" unicode="&#xea;" horiz-adv-x="573" 
d="M540 256q0 -42 -44 -42h-382q8 -74 58 -119t129 -45q48 0 86 17.5t61 47.5q10 14 28 14q14 0 23 -9t9 -23q0 -11 -7 -21q-32 -42 -84 -65t-116 -23q-58 0 -105.5 18t-81.5 51t-52.5 79t-18.5 102t18.5 102t51.5 79t79.5 51t102.5 18q53 0 98 -17.5t77.5 -48.5t51 -73.5
t18.5 -92.5zM295 426q-36 0 -66.5 -11t-54 -31t-38.5 -48t-20 -62h359q-11 69 -59 110.5t-121 41.5zM292 721q14 0 27 -11l121 -115q11 -10 11 -22q0 -11 -7.5 -18.5t-19.5 -7.5q-10 0 -18 8l-114 103l-114 -103q-8 -8 -18 -8q-12 0 -19.5 7.5t-7.5 18.5q0 12 11 22l121 115
q13 11 27 11z" />
    <glyph glyph-name="edieresis" unicode="&#xeb;" horiz-adv-x="573" 
d="M540 256q0 -42 -44 -42h-382q8 -74 58 -119t129 -45q48 0 86 17.5t61 47.5q10 14 28 14q14 0 23 -9t9 -23q0 -11 -7 -21q-32 -42 -84 -65t-116 -23q-58 0 -105.5 18t-81.5 51t-52.5 79t-18.5 102t18.5 102t51.5 79t79.5 51t102.5 18q53 0 98 -17.5t77.5 -48.5t51 -73.5
t18.5 -92.5zM295 426q-36 0 -66.5 -11t-54 -31t-38.5 -48t-20 -62h359q-11 69 -59 110.5t-121 41.5zM195 585q-18 0 -29 11t-11 30t11 30t29 11q19 0 30 -11t11 -30t-11 -30t-30 -11zM389 585q-19 0 -30 11t-11 30t11 30t30 11q18 0 29 -11t11 -30t-11 -30t-29 -11z" />
    <glyph glyph-name="igrave" unicode="&#xec;" horiz-adv-x="199" 
d="M100 482q34 0 34 -37v-414q0 -37 -34 -37q-35 0 -35 37v414q0 37 35 37zM-26 693q0 12 7.5 20t20.5 8q14 0 23 -9l117 -117q10 -9 10 -22q0 -11 -7 -18.5t-19 -7.5q-11 0 -19 7l-121 113q-12 12 -12 26z" />
    <glyph glyph-name="iacute" unicode="&#xed;" horiz-adv-x="199" 
d="M100 482q34 0 34 -37v-414q0 -37 -34 -37q-35 0 -35 37v414q0 37 35 37zM226 693q0 -14 -12 -26l-121 -113q-8 -7 -19 -7q-12 0 -19 7.5t-7 18.5q0 13 10 22l117 117q9 9 23 9q13 0 20.5 -8t7.5 -20z" />
    <glyph glyph-name="icircumflex" unicode="&#xee;" horiz-adv-x="199" 
d="M100 482q34 0 34 -37v-414q0 -37 -34 -37q-35 0 -35 37v414q0 37 35 37zM100 721q14 0 27 -11l121 -115q11 -10 11 -22q0 -11 -7.5 -18.5t-19.5 -7.5q-10 0 -18 8l-114 103l-114 -103q-8 -8 -18 -8q-12 0 -19.5 7.5t-7.5 18.5q0 12 11 22l121 115q13 11 27 11z" />
    <glyph glyph-name="idieresis" unicode="&#xef;" horiz-adv-x="199" 
d="M100 482q34 0 34 -37v-414q0 -37 -34 -37q-35 0 -35 37v414q0 37 35 37zM3 585q-18 0 -29 11t-11 30t11 30t29 11q19 0 30 -11t11 -30t-11 -30t-30 -11zM197 585q-19 0 -30 11t-11 30t11 30t30 11q18 0 29 -11t11 -30t-11 -30t-29 -11z" />
    <glyph glyph-name="eth" unicode="&#xf0;" horiz-adv-x="581" 
d="M384 582q76 -71 115 -160t39 -192q0 -55 -18 -99.5t-50.5 -76t-78.5 -49t-101 -17.5q-56 0 -101.5 17t-77.5 48.5t-50 75.5t-18 98t17.5 97.5t49 75t76 48.5t98.5 17q80 0 136 -42l2 1q-36 68 -99 122l-91 -54q-5 -3 -9.5 -4.5t-11.5 -1.5q-11 0 -19 9t-8 22q0 19 17 28
l69 40q-49 32 -106 54q-11 4 -18.5 11.5t-7.5 20.5q0 16 9 25.5t24 9.5q10 0 19 -4q41 -17 76.5 -36.5t66.5 -42.5l85 49q10 6 20 6q14 0 21 -9.5t7 -20.5q0 -18 -19 -29zM290 50q82 0 130 48t48 129t-48 128.5t-130 47.5q-41 0 -73.5 -12.5t-55.5 -35.5t-35.5 -55.5
t-12.5 -72.5q0 -81 48 -129t129 -48z" />
    <glyph glyph-name="ntilde" unicode="&#xf1;" horiz-adv-x="577" 
d="M316 488q102 0 154.5 -56.5t52.5 -165.5v-235q0 -37 -34 -37q-35 0 -35 37v229q0 82 -39 124t-114 42q-77 0 -122 -50t-45 -136v-209q0 -37 -34 -37q-35 0 -35 37v414q0 37 35 37q34 0 34 -37v-43h2q27 41 72.5 63.5t107.5 22.5zM357 562q-24 0 -42.5 9.5t-40.5 32.5
q-16 16 -26.5 22t-22.5 6q-17 0 -30.5 -13.5t-24.5 -43.5q-5 -15 -22 -15q-26 0 -26 26v5.5t2 8.5q12 41 39.5 65t60.5 24q24 0 42.5 -9.5t40.5 -32.5q16 -16 26.5 -22t22.5 -6q17 0 30.5 13.5t24.5 43.5q5 15 22 15q26 0 26 -26v-5.5t-2 -8.5q-12 -41 -39.5 -65t-60.5 -24z
" />
    <glyph glyph-name="ograve" unicode="&#xf2;" horiz-adv-x="591" 
d="M43 238q0 56 18.5 102t51.5 79t79.5 51t102.5 18t102.5 -18t80 -51t52 -79t18.5 -102t-18.5 -102t-52 -79t-80 -51t-102.5 -18t-102.5 18t-79.5 51t-51.5 79t-18.5 102zM113 238q0 -42 13 -76.5t37 -59.5t57.5 -38.5t74.5 -13.5t74.5 13.5t57.5 38.5t37.5 59.5t13.5 76.5
t-13.5 76.5t-37.5 59.5t-57.5 38.5t-74.5 13.5t-74.5 -13.5t-57.5 -38.5t-37 -59.5t-13 -76.5zM169 693q0 12 7.5 20t20.5 8q14 0 23 -9l117 -117q10 -9 10 -22q0 -11 -7 -18.5t-19 -7.5q-11 0 -19 7l-121 113q-12 12 -12 26z" />
    <glyph glyph-name="oacute" unicode="&#xf3;" horiz-adv-x="591" 
d="M43 238q0 56 18.5 102t51.5 79t79.5 51t102.5 18t102.5 -18t80 -51t52 -79t18.5 -102t-18.5 -102t-52 -79t-80 -51t-102.5 -18t-102.5 18t-79.5 51t-51.5 79t-18.5 102zM113 238q0 -42 13 -76.5t37 -59.5t57.5 -38.5t74.5 -13.5t74.5 13.5t57.5 38.5t37.5 59.5t13.5 76.5
t-13.5 76.5t-37.5 59.5t-57.5 38.5t-74.5 13.5t-74.5 -13.5t-57.5 -38.5t-37 -59.5t-13 -76.5zM421 693q0 -14 -12 -26l-121 -113q-8 -7 -19 -7q-12 0 -19 7.5t-7 18.5q0 13 10 22l117 117q9 9 23 9q13 0 20.5 -8t7.5 -20z" />
    <glyph glyph-name="ocircumflex" unicode="&#xf4;" horiz-adv-x="591" 
d="M43 238q0 56 18.5 102t51.5 79t79.5 51t102.5 18t102.5 -18t80 -51t52 -79t18.5 -102t-18.5 -102t-52 -79t-80 -51t-102.5 -18t-102.5 18t-79.5 51t-51.5 79t-18.5 102zM113 238q0 -42 13 -76.5t37 -59.5t57.5 -38.5t74.5 -13.5t74.5 13.5t57.5 38.5t37.5 59.5t13.5 76.5
t-13.5 76.5t-37.5 59.5t-57.5 38.5t-74.5 13.5t-74.5 -13.5t-57.5 -38.5t-37 -59.5t-13 -76.5zM295 721q14 0 27 -11l121 -115q11 -10 11 -22q0 -11 -7.5 -18.5t-19.5 -7.5q-10 0 -18 8l-114 103l-114 -103q-8 -8 -18 -8q-12 0 -19.5 7.5t-7.5 18.5q0 12 11 22l121 115
q13 11 27 11z" />
    <glyph glyph-name="otilde" unicode="&#xf5;" horiz-adv-x="591" 
d="M43 238q0 56 18.5 102t51.5 79t79.5 51t102.5 18t102.5 -18t80 -51t52 -79t18.5 -102t-18.5 -102t-52 -79t-80 -51t-102.5 -18t-102.5 18t-79.5 51t-51.5 79t-18.5 102zM113 238q0 -42 13 -76.5t37 -59.5t57.5 -38.5t74.5 -13.5t74.5 13.5t57.5 38.5t37.5 59.5t13.5 76.5
t-13.5 76.5t-37.5 59.5t-57.5 38.5t-74.5 13.5t-74.5 -13.5t-57.5 -38.5t-37 -59.5t-13 -76.5zM361 562q-24 0 -42.5 9.5t-40.5 32.5q-16 16 -26.5 22t-22.5 6q-17 0 -30.5 -13.5t-24.5 -43.5q-5 -15 -22 -15q-26 0 -26 26v5.5t2 8.5q12 41 39.5 65t60.5 24q24 0 42.5 -9.5
t40.5 -32.5q16 -16 26.5 -22t22.5 -6q17 0 30.5 13.5t24.5 43.5q5 15 22 15q26 0 26 -26v-5.5t-2 -8.5q-12 -41 -39.5 -65t-60.5 -24z" />
    <glyph glyph-name="odieresis" unicode="&#xf6;" horiz-adv-x="591" 
d="M43 238q0 56 18.5 102t51.5 79t79.5 51t102.5 18t102.5 -18t80 -51t52 -79t18.5 -102t-18.5 -102t-52 -79t-80 -51t-102.5 -18t-102.5 18t-79.5 51t-51.5 79t-18.5 102zM113 238q0 -42 13 -76.5t37 -59.5t57.5 -38.5t74.5 -13.5t74.5 13.5t57.5 38.5t37.5 59.5t13.5 76.5
t-13.5 76.5t-37.5 59.5t-57.5 38.5t-74.5 13.5t-74.5 -13.5t-57.5 -38.5t-37 -59.5t-13 -76.5zM198 585q-18 0 -29 11t-11 30t11 30t29 11q19 0 30 -11t11 -30t-11 -30t-30 -11zM392 585q-19 0 -30 11t-11 30t11 30t30 11q18 0 29 -11t11 -30t-11 -30t-29 -11z" />
    <glyph glyph-name="divide" unicode="&#xf7;" 
d="M322 476q-19 0 -30.5 11.5t-11.5 30.5q0 20 11.5 31.5t30.5 11.5t30.5 -11.5t11.5 -31.5q0 -19 -11.5 -30.5t-30.5 -11.5zM573 324q14 0 23 -8t9 -21q0 -14 -9 -21.5t-23 -7.5h-502q-14 0 -23 7.5t-9 21.5q0 13 9 21t23 8h502zM322 114q19 0 30.5 -11t11.5 -31
t-11.5 -31.5t-30.5 -11.5t-30.5 11.5t-11.5 31.5t11.5 31t30.5 11z" />
    <glyph glyph-name="oslash" unicode="&#xf8;" horiz-adv-x="591" 
d="M499 394q49 -63 49 -156q0 -56 -18.5 -102t-52 -79t-80 -51t-102.5 -18q-98 0 -163 53l-37 -35q-12 -12 -24 -12t-20 7.5t-8 19.5q0 14 12 26l37 35q-23 32 -36 71t-13 85q0 56 18.5 102t51.5 79t79.5 51t102.5 18q49 0 90.5 -13.5t73.5 -39.5l36 35q12 12 24 12
t20.5 -7.5t8.5 -19.5q0 -14 -12 -26zM113 238q0 -62 29 -108l269 259q-48 37 -116 37q-41 0 -74.5 -13.5t-57.5 -38.5t-37 -59.5t-13 -76.5zM478 238q0 62 -29 108l-269 -259q46 -37 115 -37q41 0 74.5 13.5t57.5 38.5t37.5 59.5t13.5 76.5z" />
    <glyph glyph-name="ugrave" unicode="&#xf9;" horiz-adv-x="574" 
d="M475 482q34 0 34 -37v-416q0 -16 -9.5 -25.5t-25.5 -9.5t-25 9.5t-9 25.5v45h-2q-27 -41 -72 -63.5t-106 -22.5q-100 0 -153 57t-53 166v234q0 37 34 37q35 0 35 -37v-228q0 -83 38.5 -125t113.5 -42t120 49.5t45 136.5v209q0 37 35 37zM156 693q0 12 7.5 20t20.5 8
q14 0 23 -9l117 -117q10 -9 10 -22q0 -11 -7 -18.5t-19 -7.5q-11 0 -19 7l-121 113q-12 12 -12 26z" />
    <glyph glyph-name="uacute" unicode="&#xfa;" horiz-adv-x="574" 
d="M475 482q34 0 34 -37v-416q0 -16 -9.5 -25.5t-25.5 -9.5t-25 9.5t-9 25.5v45h-2q-27 -41 -72 -63.5t-106 -22.5q-100 0 -153 57t-53 166v234q0 37 34 37q35 0 35 -37v-228q0 -83 38.5 -125t113.5 -42t120 49.5t45 136.5v209q0 37 35 37zM408 693q0 -14 -12 -26l-121 -113
q-8 -7 -19 -7q-12 0 -19 7.5t-7 18.5q0 13 10 22l117 117q9 9 23 9q13 0 20.5 -8t7.5 -20z" />
    <glyph glyph-name="ucircumflex" unicode="&#xfb;" horiz-adv-x="574" 
d="M475 482q34 0 34 -37v-416q0 -16 -9.5 -25.5t-25.5 -9.5t-25 9.5t-9 25.5v45h-2q-27 -41 -72 -63.5t-106 -22.5q-100 0 -153 57t-53 166v234q0 37 34 37q35 0 35 -37v-228q0 -83 38.5 -125t113.5 -42t120 49.5t45 136.5v209q0 37 35 37zM282 721q14 0 27 -11l121 -115
q11 -10 11 -22q0 -11 -7.5 -18.5t-19.5 -7.5q-10 0 -18 8l-114 103l-114 -103q-8 -8 -18 -8q-12 0 -19.5 7.5t-7.5 18.5q0 12 11 22l121 115q13 11 27 11z" />
    <glyph glyph-name="udieresis" unicode="&#xfc;" horiz-adv-x="574" 
d="M475 482q34 0 34 -37v-416q0 -16 -9.5 -25.5t-25.5 -9.5t-25 9.5t-9 25.5v45h-2q-27 -41 -72 -63.5t-106 -22.5q-100 0 -153 57t-53 166v234q0 37 34 37q35 0 35 -37v-228q0 -83 38.5 -125t113.5 -42t120 49.5t45 136.5v209q0 37 35 37zM185 585q-18 0 -29 11t-11 30
t11 30t29 11q19 0 30 -11t11 -30t-11 -30t-30 -11zM379 585q-19 0 -30 11t-11 30t11 30t30 11q18 0 29 -11t11 -30t-11 -30t-29 -11z" />
    <glyph glyph-name="yacute" unicode="&#xfd;" horiz-adv-x="574" 
d="M475 482q34 0 34 -37v-408q0 -110 -63 -172.5t-174 -62.5q-66 0 -119 19.5t-82 59.5q-7 10 -7 21q0 14 9 23.5t24 9.5q12 0 21 -9q29 -32 66.5 -47t86.5 -15q79 0 124 45.5t45 125.5v48h-2q-27 -41 -72 -63.5t-106 -22.5q-100 0 -153 56.5t-53 165.5v226q0 37 34 37
q35 0 35 -37v-220q0 -81 38.5 -123.5t113.5 -42.5q37 0 67.5 13t52.5 37t33.5 58.5t11.5 77.5v200q0 37 35 37zM408 693q0 -14 -12 -26l-121 -113q-8 -7 -19 -7q-12 0 -19 7.5t-7 18.5q0 13 10 22l117 117q9 9 23 9q13 0 20.5 -8t7.5 -20z" />
    <glyph glyph-name="thorn" unicode="&#xfe;" horiz-adv-x="612" 
d="M327 488q54 0 98.5 -18t76.5 -51t49.5 -79t17.5 -102t-17.5 -102t-49.5 -79t-76.5 -51t-98.5 -18q-65 0 -113.5 23.5t-77.5 66.5h-2v-233q0 -37 -35 -37q-34 0 -34 37v824q0 37 34 37q35 0 35 -37v-271h2q29 43 77.5 66.5t113.5 23.5zM316 50q40 0 74 13.5t58 38.5
t37.5 59.5t13.5 76.5t-13.5 76.5t-37.5 59.5t-58 38.5t-74 13.5t-73.5 -14t-57.5 -38.5t-37.5 -59t-13.5 -76.5t13.5 -76.5t37.5 -59.5t57.5 -38.5t73.5 -13.5z" />
    <glyph glyph-name="ydieresis" unicode="&#xff;" horiz-adv-x="574" 
d="M475 482q34 0 34 -37v-408q0 -110 -63 -172.5t-174 -62.5q-66 0 -119 19.5t-82 59.5q-7 10 -7 21q0 14 9 23.5t24 9.5q12 0 21 -9q29 -32 66.5 -47t86.5 -15q79 0 124 45.5t45 125.5v48h-2q-27 -41 -72 -63.5t-106 -22.5q-100 0 -153 56.5t-53 165.5v226q0 37 34 37
q35 0 35 -37v-220q0 -81 38.5 -123.5t113.5 -42.5q37 0 67.5 13t52.5 37t33.5 58.5t11.5 77.5v200q0 37 35 37zM185 585q-18 0 -29 11t-11 30t11 30t29 11q19 0 30 -11t11 -30t-11 -30t-30 -11zM379 585q-19 0 -30 11t-11 30t11 30t30 11q18 0 29 -11t11 -30t-11 -30
t-29 -11z" />
    <glyph glyph-name="dotlessi" unicode="&#x131;" horiz-adv-x="199" 
d="M100 482q34 0 34 -37v-414q0 -37 -34 -37q-35 0 -35 37v414q0 37 35 37z" />
    <glyph glyph-name="OE" unicode="&#x152;" horiz-adv-x="1243" 
d="M1174 67q17 0 26.5 -9t9.5 -25q0 -15 -9.5 -24t-26.5 -9h-474q-40 0 -40 40v91h-2q-40 -68 -109.5 -105.5t-166.5 -37.5q-76 0 -138.5 25t-107 71t-69 109.5t-24.5 141.5t24.5 141.5t69 109.5t107 71t138.5 25q97 0 166.5 -37.5t109.5 -105.5h2v91q0 40 40 40h474
q17 0 26.5 -9t9.5 -24q0 -16 -9.5 -25t-26.5 -9h-441v-232h366q37 0 37 -33q0 -34 -37 -34h-366v-237h441zM388 55q60 0 110 20.5t86 57.5t56 88.5t20 113.5t-20 113.5t-56 88.5t-86 57.5t-110 20.5t-110 -20.5t-86 -57.5t-55.5 -88.5t-19.5 -113.5t19.5 -113.5t55.5 -88.5
t86 -57.5t110 -20.5z" />
    <glyph glyph-name="oe" unicode="&#x153;" horiz-adv-x="1008" 
d="M975 256q0 -42 -44 -42h-382q8 -74 58 -119t129 -45q48 0 86 17.5t61 47.5q10 14 28 14q14 0 23 -9t9 -23q0 -11 -6 -20q-31 -42 -82.5 -65.5t-114.5 -23.5q-82 0 -140 35t-86 95h-2q-28 -60 -85 -95t-136 -35q-55 0 -100.5 18t-78.5 51t-51 79t-18 102t18 102t51 79
t78.5 51t100.5 18q79 0 136 -34.5t85 -94.5h2q28 60 85 94.5t136 34.5q52 0 96.5 -17t76 -48t49.5 -73.5t18 -93.5zM295 50q41 0 74.5 13.5t57.5 38.5t37.5 59.5t13.5 76.5t-13.5 76.5t-37.5 59.5t-57.5 38.5t-74.5 13.5t-74.5 -13.5t-57.5 -38.5t-37 -59.5t-13 -76.5
t13 -76.5t37 -59.5t57.5 -38.5t74.5 -13.5zM910 274q-11 69 -59 110.5t-121 41.5q-36 0 -66.5 -11t-54 -31t-38.5 -48t-20 -62h359z" />
    <glyph glyph-name="Scaron" unicode="&#x160;" horiz-adv-x="655" 
d="M120 476q0 -26 10.5 -44t34.5 -30t64 -17.5t100 -6.5q80 -1 135.5 -12t89.5 -33.5t49 -56.5t15 -81q0 -98 -75.5 -152.5t-209.5 -54.5q-103 0 -177.5 28t-111.5 81q-8 11 -8 25q0 15 9.5 25t25.5 10q17 0 26 -12q34 -44 95.5 -67t145.5 -23q97 0 152 37t55 102
q0 29 -11.5 49.5t-37.5 34t-68.5 20t-104.5 7.5q-77 1 -129.5 11t-85.5 31t-47.5 52.5t-14.5 75.5q0 47 20 85t56.5 65t88.5 42t116 15q85 0 150 -23.5t103 -68.5q9 -11 9 -27q0 -15 -9.5 -25t-25.5 -10q-18 0 -28 12q-69 75 -204 75q-46 0 -83 -10t-63.5 -28t-41 -44
t-14.5 -57zM321 736q-14 0 -27 11l-121 115q-11 10 -11 22q0 11 7.5 18.5t19.5 7.5q10 0 18 -8l114 -103l114 103q8 8 18 8q12 0 19.5 -7.5t7.5 -18.5q0 -12 -11 -22l-121 -115q-13 -11 -27 -11z" />
    <glyph glyph-name="scaron" unicode="&#x161;" horiz-adv-x="498" 
d="M111 339q0 -33 30.5 -47.5t111.5 -15.5q60 0 101 -8.5t66.5 -26t36.5 -43.5t11 -62q0 -69 -55.5 -108.5t-154.5 -39.5q-145 0 -214 68q-10 10 -10 25t9 24t22 9q10 0 16.5 -4t12.5 -9q27 -24 68 -37t92 -13q68 0 106.5 23t38.5 63q0 18 -7.5 31.5t-25 22t-46 12.5
t-71.5 5q-58 1 -98 9t-64.5 24t-35 40t-10.5 58q0 68 56.5 108.5t151.5 40.5q120 0 185 -56q12 -11 12 -28q0 -14 -8.5 -23.5t-22.5 -9.5t-26 10q-26 21 -62 33t-74 12q-66 0 -104 -23t-38 -64zM245 547q-14 0 -27 11l-121 115q-11 10 -11 22q0 11 7.5 18.5t19.5 7.5
q10 0 18 -8l114 -103l114 103q8 8 18 8q12 0 19.5 -7.5t7.5 -18.5q0 -12 -11 -22l-121 -115q-13 -11 -27 -11z" />
    <glyph glyph-name="Ydieresis" unicode="&#x178;" horiz-adv-x="641" 
d="M357 34q0 -40 -36 -40q-37 0 -37 40v256l-269 320q-5 7 -8 13.5t-3 15.5q0 17 10 27t27 10t31 -15l249 -302l249 299q7 8 14 13t17 5q16 0 26 -9.5t10 -26.5q0 -15 -10 -28l-270 -323v-255zM224 774q-18 0 -29 11t-11 30t11 30t29 11q19 0 30 -11t11 -30t-11 -30t-30 -11
zM418 774q-19 0 -30 11t-11 30t11 30t30 11q18 0 29 -11t11 -30t-11 -30t-29 -11z" />
    <glyph glyph-name="Zcaron" unicode="&#x17d;" horiz-adv-x="638" 
d="M569 67q17 0 26.5 -9t9.5 -25q0 -15 -9.5 -24t-26.5 -9h-497q-19 0 -29.5 10t-10.5 25q0 11 3 18t11 15l448 535h-410q-37 0 -37 34q0 15 10 24t27 9h476q19 0 29.5 -10t10.5 -25q0 -9 -3 -17t-11 -18l-448 -533h431zM324 736q-14 0 -27 11l-121 115q-11 10 -11 22
q0 11 7.5 18.5t19.5 7.5q10 0 18 -8l114 -103l114 103q8 8 18 8q12 0 19.5 -7.5t7.5 -18.5q0 -12 -11 -22l-121 -115q-13 -11 -27 -11z" />
    <glyph glyph-name="zcaron" unicode="&#x17e;" horiz-adv-x="510" 
d="M445 62q34 0 34 -31t-34 -31h-376q-18 0 -28 9.5t-10 24.5q0 10 4 18t12 16l323 346h-290q-34 0 -34 31t34 31h356q18 0 28 -8.5t10 -22.5q0 -12 -4.5 -19.5t-12.5 -15.5l-322 -348h310zM260 547q-14 0 -27 11l-121 115q-11 10 -11 22q0 11 7.5 18.5t19.5 7.5q10 0 18 -8
l114 -103l114 103q8 8 18 8q12 0 19.5 -7.5t7.5 -18.5q0 -12 -11 -22l-121 -115q-13 -11 -27 -11z" />
    <glyph glyph-name="florin" unicode="&#x192;" 
d="M585 578q5 -10 5 -18q0 -16 -9 -25t-23 -9q-18 0 -26 14q-33 59 -100 59q-109 0 -123 -123l-9 -82h212q15 0 23.5 -8t8.5 -21q0 -34 -35 -34h-216l-28 -266q-13 -132 -119 -150q-5 -1 -8 -1h-6q-14 0 -23 9t-9 23q0 15 8.5 23t19.5 10q32 5 48 27.5t21 63.5l28 261h-102
q-32 0 -32 28q0 35 36 35h104l9 83q10 92 58 138.5t133 46.5q53 0 93 -22t61 -62z" />
    <glyph glyph-name="uni0237" unicode="&#x237;" horiz-adv-x="199" 
d="M100 482q34 0 34 -37v-497q0 -66 -32.5 -100t-91.5 -34h-18q-34 0 -34 31t34 31h11q62 0 62 74v495q0 37 35 37z" />
    <glyph glyph-name="circumflex" unicode="&#x2c6;" horiz-adv-x="500" 
d="M250 721q14 0 27 -11l121 -115q11 -10 11 -22q0 -11 -7.5 -18.5t-19.5 -7.5q-10 0 -18 8l-114 103l-114 -103q-8 -8 -18 -8q-12 0 -19.5 7.5t-7.5 18.5q0 12 11 22l121 115q13 11 27 11z" />
    <glyph glyph-name="tilde" unicode="&#x2dc;" horiz-adv-x="500" 
d="M317 562q-24 0 -42.5 9.5t-40.5 32.5q-16 16 -26.5 22t-22.5 6q-17 0 -30.5 -13.5t-24.5 -43.5q-5 -15 -22 -15q-26 0 -26 26v5.5t2 8.5q12 41 39.5 65t60.5 24q24 0 42.5 -9.5t40.5 -32.5q16 -16 26.5 -22t22.5 -6q17 0 30.5 13.5t24.5 43.5q5 15 22 15q26 0 26 -26
v-5.5t-2 -8.5q-12 -41 -39.5 -65t-60.5 -24z" />
    <glyph glyph-name="endash" unicode="&#x2013;" horiz-adv-x="500" 
d="M431 296q34 0 34 -30q0 -31 -34 -31h-362q-34 0 -34 31q0 30 34 30h362z" />
    <glyph glyph-name="emdash" unicode="&#x2014;" horiz-adv-x="1000" 
d="M921 296q34 0 34 -30q0 -31 -34 -31h-842q-34 0 -34 31q0 30 34 30h842z" />
    <glyph glyph-name="quoteleft" unicode="&#x2018;" horiz-adv-x="228" 
d="M136 660q9 16 25 16q11 0 18.5 -7.5t7.5 -18.5q0 -5 -1.5 -9t-3.5 -9l-71 -158q-11 -24 -34 -24q-16 0 -25.5 9.5t-9.5 25.5q0 10 7 23z" />
    <glyph glyph-name="quoteright" unicode="&#x2019;" horiz-adv-x="228" 
d="M92 466q-9 -16 -25 -16q-11 0 -18.5 7.5t-7.5 18.5q0 5 1.5 9t3.5 9l71 158q10 24 34 24q16 0 25.5 -9.5t9.5 -25.5q0 -10 -7 -23z" />
    <glyph glyph-name="quotesinglbase" unicode="&#x201a;" horiz-adv-x="228" 
d="M57 -125q-9 -16 -25 -16q-11 0 -18.5 7.5t-7.5 18.5q0 5 1.5 9t3.5 9l71 158q10 24 34 24q16 0 25.5 -9.5t9.5 -25.5q0 -10 -7 -23z" />
    <glyph glyph-name="quotedblleft" unicode="&#x201c;" horiz-adv-x="410" 
d="M136 660q9 16 25 16q11 0 18.5 -7.5t7.5 -18.5q0 -5 -1.5 -9t-3.5 -9l-71 -158q-11 -24 -34 -24q-16 0 -25.5 9.5t-9.5 25.5q0 10 7 23zM318 660q9 16 25 16q11 0 18.5 -7.5t7.5 -18.5q0 -5 -1.5 -9t-3.5 -9l-71 -158q-11 -24 -34 -24q-16 0 -25.5 9.5t-9.5 25.5
q0 10 7 23z" />
    <glyph glyph-name="quotedblright" unicode="&#x201d;" horiz-adv-x="410" 
d="M92 466q-9 -16 -25 -16q-11 0 -18.5 7.5t-7.5 18.5q0 5 1.5 9t3.5 9l71 158q10 24 34 24q16 0 25.5 -9.5t9.5 -25.5q0 -10 -7 -23zM274 466q-9 -16 -25 -16q-11 0 -18.5 7.5t-7.5 18.5q0 5 1.5 9t3.5 9l71 158q10 24 34 24q16 0 25.5 -9.5t9.5 -25.5q0 -10 -7 -23z" />
    <glyph glyph-name="quotedblbase" unicode="&#x201e;" horiz-adv-x="410" 
d="M239 -125q-9 -16 -25 -16q-11 0 -18.5 7.5t-7.5 18.5q0 5 1.5 9t3.5 9l71 158q10 24 34 24q16 0 25.5 -9.5t9.5 -25.5q0 -10 -7 -23zM57 -125q-9 -16 -25 -16q-11 0 -18.5 7.5t-7.5 18.5q0 5 1.5 9t3.5 9l71 158q10 24 34 24q16 0 25.5 -9.5t9.5 -25.5q0 -10 -7 -23z" />
    <glyph glyph-name="dagger" unicode="&#x2020;" horiz-adv-x="508" 
d="M433 517q30 0 30 -27t-30 -27h-149v-343q0 -32 -30 -32q-29 0 -29 32v343h-150q-14 0 -22 7t-8 20t8 20t22 7h150v157q0 32 29 32q30 0 30 -32v-157h149z" />
    <glyph glyph-name="daggerdbl" unicode="&#x2021;" horiz-adv-x="508" 
d="M433 324q30 0 30 -27t-30 -27h-149v-150q0 -32 -30 -32q-29 0 -29 32v150h-150q-14 0 -22 7t-8 20t8 20t22 7h150v139h-150q-14 0 -22 7t-8 20t8 20t22 7h150v157q0 32 29 32q30 0 30 -32v-157h149q30 0 30 -27t-30 -27h-149v-139h149z" />
    <glyph glyph-name="bullet" unicode="&#x2022;" horiz-adv-x="500" 
d="M250 126q-32 0 -59 11.5t-47.5 32t-32 47.5t-11.5 59q0 31 11.5 58t32 47.5t47.5 32t59 11.5q31 0 58.5 -11.5t48 -32t32 -47.5t11.5 -58q0 -32 -11.5 -59t-32 -47.5t-48 -32t-58.5 -11.5z" />
    <glyph glyph-name="ellipsis" unicode="&#x2026;" horiz-adv-x="1000" 
d="M807 -6q-20 0 -32.5 12.5t-12.5 32.5q0 21 12.5 33.5t32.5 12.5t33 -12.5t13 -33.5q0 -20 -13 -32.5t-33 -12.5zM500 -6q-20 0 -32.5 12.5t-12.5 32.5q0 21 12.5 33.5t32.5 12.5t33 -12.5t13 -33.5q0 -20 -13 -32.5t-33 -12.5zM193 -6q-20 0 -32.5 12.5t-12.5 32.5
q0 21 12.5 33.5t32.5 12.5t33 -12.5t13 -33.5q0 -20 -13 -32.5t-33 -12.5z" />
    <glyph glyph-name="perthousand" unicode="&#x2030;" horiz-adv-x="1062" 
d="M736 156q0 37 10.5 68t30 53.5t47.5 34.5t62 12t62 -12t47.5 -34.5t30 -53.5t10.5 -68q0 -38 -10.5 -68.5t-30 -53t-47.5 -34.5t-62 -12t-62 12t-47.5 34.5t-30 53t-10.5 68.5zM793 156q0 -56 24 -85t69 -29t69 29t24 85q0 55 -24 84.5t-69 29.5t-69 -29.5t-24 -84.5z
M326 494q0 -38 -10.5 -68.5t-30 -53t-47.5 -34.5t-62 -12t-62 12t-47.5 34.5t-30 53t-10.5 68.5q0 37 10.5 68t30 53.5t47.5 34.5t62 12t62 -12t47.5 -34.5t30 -53.5t10.5 -68zM170 7q-9 -13 -23 -13q-11 0 -18.5 7t-7.5 18q0 9 7 19l423 605q9 13 23 13q11 0 18.5 -7
t7.5 -18q0 -9 -7 -19zM83 494q0 -56 24 -85t69 -29t69 29t24 85q0 55 -24 84.5t-69 29.5t-69 -29.5t-24 -84.5zM544 324q34 0 62 -12t47.5 -34.5t30 -53.5t10.5 -68q0 -38 -10.5 -68.5t-30 -53t-47.5 -34.5t-62 -12t-62 12t-47.5 34.5t-30 53t-10.5 68.5q0 37 10.5 68
t30 53.5t47.5 34.5t62 12zM544 42q45 0 69 29t24 85q0 55 -24 84.5t-69 29.5t-69 -29.5t-24 -84.5q0 -56 24 -85t69 -29z" />
    <glyph glyph-name="guilsinglleft" unicode="&#x2039;" horiz-adv-x="287" 
d="M230 83q10 -13 10 -24q0 -12 -8 -20t-21 -8t-23 11l-145 169q-12 13 -12 27q0 13 12 27l145 169q10 11 23 11t21 -8t8 -20q0 -11 -10 -24l-134 -155z" />
    <glyph glyph-name="guilsinglright" unicode="&#x203a;" horiz-adv-x="287" 
d="M57 393q-10 13 -10 24q0 12 8 20t21 8t23 -11l145 -169q12 -14 12 -27q0 -14 -12 -27l-145 -169q-10 -11 -23 -11t-21 8t-8 20q0 11 10 24l134 155z" />
    <glyph glyph-name="Euro" unicode="&#x20ac;" 
d="M555 119q14 0 23 -9.5t9 -23.5t-9 -23q-72 -75 -190 -75q-107 0 -176.5 62t-91.5 173h-36q-15 0 -24.5 8t-9.5 22t9.5 22.5t24.5 8.5h27q-1 10 -1 20v21v20.5t1 19.5h-27q-15 0 -24.5 8t-9.5 22t9.5 22.5t24.5 8.5h35q23 112 92.5 174t176.5 62q59 0 106.5 -19.5
t82.5 -54.5q10 -10 10 -24t-9 -23.5t-23 -9.5q-13 0 -23 10q-55 57 -142 57q-78 0 -128.5 -45t-69.5 -127h222q15 0 24.5 -8.5t9.5 -22.5t-9.5 -22t-24.5 -8h-232q0 -10 -0.5 -19.5t-0.5 -20.5t0.5 -21t1.5 -20h231q15 0 24.5 -8.5t9.5 -22.5t-9.5 -22t-24.5 -8h-222
q19 -82 69.5 -126.5t128.5 -44.5q87 0 142 57q10 10 23 10z" />
    <glyph glyph-name="trademark" unicode="&#x2122;" horiz-adv-x="834" 
d="M756 676q14 0 22.5 -9.5t8.5 -23.5v-302q0 -27 -25 -27t-25 27v245h-2l-115 -187q-6 -10 -11.5 -13.5t-13.5 -3.5q-15 0 -25 17l-118 189h-2v-248q0 -26 -24 -26q-23 0 -23 26v303q0 14 8 23.5t23 9.5q11 0 18.5 -6t14.5 -17l128 -207l130 209q7 11 13.5 16t17.5 5z
M314 670q25 0 25 -23q0 -22 -25 -22h-116v-284q0 -27 -25 -27t-25 27v284h-116q-25 0 -25 22q0 23 25 23h282z" />
  </font>
</defs>
</svg>
